<mxfile host="drawio-plugin" modified="2022-08-05T10:31:55.756Z" agent="5.0 (Macintosh; Intel Mac OS X 11_6_7) AppleWebKit/537.36 (KHTML, like Gecko) Chrome/89.0.4389.114 Safari/537.36" etag="Eo6_Z3P4bpai_TGsxlIu" version="15.5.4" type="embed" pages="7"><diagram id="y2wRp-DvTLMHvc-0ux0C" name="brain_execution"><mxGraphModel dx="976" dy="718" grid="1" gridSize="10" guides="1" tooltips="1" connect="1" arrows="1" fold="1" page="1" pageScale="1" pageWidth="1169" pageHeight="827" math="0" shadow="0"><root><mxCell id="0"/><mxCell id="1" parent="0"/><mxCell id="nm2zZelOTq_9gEp1zpE1-1" value="Read Attributes" style="shape=flexArrow;endArrow=classic;html=1;rounded=0;entryX=0.447;entryY=-0.087;entryDx=0;entryDy=0;entryPerimeter=0;" parent="1" edge="1"><mxGeometry width="50" height="50" relative="1" as="geometry"><mxPoint x="860" y="308" as="sourcePoint"/><mxPoint x="862.5" y="704.29" as="targetPoint"/></mxGeometry></mxCell><mxCell id="nm2zZelOTq_9gEp1zpE1-2" style="edgeStyle=orthogonalEdgeStyle;rounded=0;orthogonalLoop=1;jettySize=auto;html=1;entryX=0;entryY=0.5;entryDx=0;entryDy=0;entryPerimeter=0;" parent="1" target="nm2zZelOTq_9gEp1zpE1-29" edge="1"><mxGeometry relative="1" as="geometry"><mxPoint x="893" y="268" as="sourcePoint"/></mxGeometry></mxCell><mxCell id="nm2zZelOTq_9gEp1zpE1-3" style="edgeStyle=orthogonalEdgeStyle;rounded=0;orthogonalLoop=1;jettySize=auto;html=1;entryX=0;entryY=0.5;entryDx=0;entryDy=0;entryPerimeter=0;" parent="1" source="nm2zZelOTq_9gEp1zpE1-4" target="nm2zZelOTq_9gEp1zpE1-6" edge="1"><mxGeometry relative="1" as="geometry"/></mxCell><mxCell id="nm2zZelOTq_9gEp1zpE1-4" value="Azure Content Ingestion" style="aspect=fixed;perimeter=ellipsePerimeter;html=1;align=center;shadow=0;dashed=0;spacingTop=3;image;image=img/lib/active_directory/database_server.svg;" parent="1" vertex="1"><mxGeometry x="37.60000000000002" y="328" width="65.6" height="80" as="geometry"/></mxCell><mxCell id="nm2zZelOTq_9gEp1zpE1-5" style="edgeStyle=orthogonalEdgeStyle;rounded=0;orthogonalLoop=1;jettySize=auto;html=1;" parent="1" source="nm2zZelOTq_9gEp1zpE1-6" target="nm2zZelOTq_9gEp1zpE1-8" edge="1"><mxGeometry relative="1" as="geometry"/></mxCell><mxCell id="nm2zZelOTq_9gEp1zpE1-6" value="Content Updates" style="verticalLabelPosition=bottom;html=1;verticalAlign=top;align=center;strokeColor=none;fillColor=#00BEF2;shape=mxgraph.azure.queue_generic;pointerEvents=1;" parent="1" vertex="1"><mxGeometry x="142.10000000000002" y="360.5" width="50" height="15" as="geometry"/></mxCell><mxCell id="nm2zZelOTq_9gEp1zpE1-7" style="edgeStyle=orthogonalEdgeStyle;rounded=0;orthogonalLoop=1;jettySize=auto;html=1;entryX=0;entryY=0.5;entryDx=0;entryDy=0;entryPerimeter=0;" parent="1" source="nm2zZelOTq_9gEp1zpE1-8" target="nm2zZelOTq_9gEp1zpE1-17" edge="1"><mxGeometry relative="1" as="geometry"/></mxCell><mxCell id="nm2zZelOTq_9gEp1zpE1-8" value="Interpretation Bridge" style="sketch=0;points=[[0,0,0],[0.25,0,0],[0.5,0,0],[0.75,0,0],[1,0,0],[0,1,0],[0.25,1,0],[0.5,1,0],[0.75,1,0],[1,1,0],[0,0.25,0],[0,0.5,0],[0,0.75,0],[1,0.25,0],[1,0.5,0],[1,0.75,0]];outlineConnect=0;fontColor=#232F3E;gradientColor=#4AB29A;gradientDirection=north;fillColor=#116D5B;strokeColor=#ffffff;dashed=0;verticalLabelPosition=bottom;verticalAlign=top;align=center;html=1;fontSize=12;fontStyle=0;aspect=fixed;shape=mxgraph.aws4.resourceIcon;resIcon=mxgraph.aws4.codeguru_2;" parent="1" vertex="1"><mxGeometry x="228.10000000000002" y="329" width="78" height="78" as="geometry"/></mxCell><mxCell id="nm2zZelOTq_9gEp1zpE1-9" value="Brain OS DAG 1" style="swimlane;childLayout=stackLayout;horizontal=1;fillColor=none;horizontalStack=1;resizeParent=1;resizeParentMax=0;resizeLast=0;collapsible=0;strokeColor=none;stackBorder=10;stackSpacing=-12;resizable=1;align=center;points=[];fontColor=#000000;" parent="1" vertex="1"><mxGeometry y="140" width="296" height="100" as="geometry"/></mxCell><mxCell id="nm2zZelOTq_9gEp1zpE1-10" value="Ingest" style="shape=step;perimeter=stepPerimeter;fixedSize=1;points=[];fillColor=#B9E0A5;" parent="nm2zZelOTq_9gEp1zpE1-9" vertex="1"><mxGeometry x="10" y="33" width="100" height="57" as="geometry"/></mxCell><mxCell id="nm2zZelOTq_9gEp1zpE1-11" value="DAG" style="shape=step;perimeter=stepPerimeter;fixedSize=1;points=[];" parent="nm2zZelOTq_9gEp1zpE1-9" vertex="1"><mxGeometry x="98" y="33" width="100" height="57" as="geometry"/></mxCell><mxCell id="nm2zZelOTq_9gEp1zpE1-12" value="Reduce" style="shape=step;perimeter=stepPerimeter;fixedSize=1;points=[];" parent="nm2zZelOTq_9gEp1zpE1-9" vertex="1"><mxGeometry x="186" y="33" width="100" height="57" as="geometry"/></mxCell><mxCell id="nm2zZelOTq_9gEp1zpE1-15" style="edgeStyle=orthogonalEdgeStyle;rounded=0;orthogonalLoop=1;jettySize=auto;html=1;entryX=0;entryY=0.5;entryDx=0;entryDy=0;entryPerimeter=0;" parent="1" source="nm2zZelOTq_9gEp1zpE1-12" target="12" edge="1"><mxGeometry relative="1" as="geometry"><mxPoint x="6.699999999999818" y="201.5" as="targetPoint"/></mxGeometry></mxCell><mxCell id="nm2zZelOTq_9gEp1zpE1-16" style="edgeStyle=orthogonalEdgeStyle;rounded=0;orthogonalLoop=1;jettySize=auto;html=1;" parent="1" source="nm2zZelOTq_9gEp1zpE1-17" edge="1"><mxGeometry relative="1" as="geometry"><mxPoint x="466.6" y="368.5" as="targetPoint"/></mxGeometry></mxCell><mxCell id="nm2zZelOTq_9gEp1zpE1-17" value="Extracted Entities" style="verticalLabelPosition=bottom;html=1;verticalAlign=top;align=center;strokeColor=none;fillColor=#00BEF2;shape=mxgraph.azure.queue_generic;pointerEvents=1;" parent="1" vertex="1"><mxGeometry x="356.1" y="360.5" width="50" height="15" as="geometry"/></mxCell><mxCell id="nm2zZelOTq_9gEp1zpE1-24" style="edgeStyle=orthogonalEdgeStyle;rounded=0;orthogonalLoop=1;jettySize=auto;html=1;entryX=0.6;entryY=0.03;entryDx=0;entryDy=0;entryPerimeter=0;" parent="1" source="nm2zZelOTq_9gEp1zpE1-25" target="nm2zZelOTq_9gEp1zpE1-67" edge="1"><mxGeometry relative="1" as="geometry"/></mxCell><mxCell id="nm2zZelOTq_9gEp1zpE1-25" value="Delta Cache" style="shape=datastore;whiteSpace=wrap;html=1;" parent="1" vertex="1"><mxGeometry x="1065" y="330" width="60" height="60" as="geometry"/></mxCell><mxCell id="nm2zZelOTq_9gEp1zpE1-26" style="edgeStyle=orthogonalEdgeStyle;rounded=0;orthogonalLoop=1;jettySize=auto;html=1;entryX=0;entryY=0.5;entryDx=0;entryDy=0;entryPerimeter=0;" parent="1" source="nm2zZelOTq_9gEp1zpE1-27" target="nm2zZelOTq_9gEp1zpE1-63" edge="1"><mxGeometry relative="1" as="geometry"><mxPoint x="899" y="148" as="targetPoint"/></mxGeometry></mxCell><mxCell id="nm2zZelOTq_9gEp1zpE1-27" value="Feature Repository" style="rounded=1;whiteSpace=wrap;html=1;" parent="1" vertex="1"><mxGeometry x="723" y="108" width="120" height="80" as="geometry"/></mxCell><mxCell id="nm2zZelOTq_9gEp1zpE1-28" style="edgeStyle=orthogonalEdgeStyle;rounded=0;orthogonalLoop=1;jettySize=auto;html=1;entryX=0;entryY=0.5;entryDx=0;entryDy=0;" parent="1" source="nm2zZelOTq_9gEp1zpE1-29" target="nm2zZelOTq_9gEp1zpE1-60" edge="1"><mxGeometry relative="1" as="geometry"/></mxCell><mxCell id="nm2zZelOTq_9gEp1zpE1-29" value="Knowledge Updates" style="verticalLabelPosition=bottom;html=1;verticalAlign=top;align=center;strokeColor=none;fillColor=#00BEF2;shape=mxgraph.azure.queue_generic;pointerEvents=1;" parent="1" vertex="1"><mxGeometry x="947.3" y="260.5" width="50" height="15" as="geometry"/></mxCell><mxCell id="nm2zZelOTq_9gEp1zpE1-30" style="edgeStyle=orthogonalEdgeStyle;rounded=0;orthogonalLoop=1;jettySize=auto;html=1;entryX=0;entryY=0.5;entryDx=0;entryDy=0;entryPerimeter=0;" parent="1" source="nm2zZelOTq_9gEp1zpE1-31" target="nm2zZelOTq_9gEp1zpE1-48" edge="1"><mxGeometry relative="1" as="geometry"/></mxCell><mxCell id="nm2zZelOTq_9gEp1zpE1-31" value="ml_function_topic" style="verticalLabelPosition=bottom;html=1;verticalAlign=top;align=center;strokeColor=none;fillColor=#00BEF2;shape=mxgraph.azure.queue_generic;pointerEvents=1;" parent="1" vertex="1"><mxGeometry x="181.6" y="449.87" width="50" height="15" as="geometry"/></mxCell><mxCell id="nm2zZelOTq_9gEp1zpE1-32" value="dl_function_topic" style="verticalLabelPosition=bottom;html=1;verticalAlign=top;align=center;strokeColor=none;fillColor=#00BEF2;shape=mxgraph.azure.queue_generic;pointerEvents=1;" parent="1" vertex="1"><mxGeometry x="180.6" y="512.87" width="50" height="15" as="geometry"/></mxCell><mxCell id="nm2zZelOTq_9gEp1zpE1-33" style="edgeStyle=orthogonalEdgeStyle;rounded=0;orthogonalLoop=1;jettySize=auto;html=1;" parent="1" source="nm2zZelOTq_9gEp1zpE1-34" target="nm2zZelOTq_9gEp1zpE1-41" edge="1"><mxGeometry relative="1" as="geometry"/></mxCell><mxCell id="nm2zZelOTq_9gEp1zpE1-34" value="rule_function_topic" style="verticalLabelPosition=bottom;html=1;verticalAlign=top;align=center;strokeColor=none;fillColor=#00BEF2;shape=mxgraph.azure.queue_generic;pointerEvents=1;" parent="1" vertex="1"><mxGeometry x="181.6" y="572.87" width="50" height="15" as="geometry"/></mxCell><mxCell id="nm2zZelOTq_9gEp1zpE1-35" style="edgeStyle=orthogonalEdgeStyle;rounded=0;orthogonalLoop=1;jettySize=auto;html=1;entryX=0;entryY=0.5;entryDx=0;entryDy=0;" parent="1" source="nm2zZelOTq_9gEp1zpE1-36" edge="1"><mxGeometry relative="1" as="geometry"><mxPoint x="299.5999999999997" y="646.6199999999999" as="targetPoint"/></mxGeometry></mxCell><mxCell id="nm2zZelOTq_9gEp1zpE1-36" value="optimization_function_topic" style="verticalLabelPosition=bottom;html=1;verticalAlign=top;align=center;strokeColor=none;fillColor=#00BEF2;shape=mxgraph.azure.queue_generic;pointerEvents=1;" parent="1" vertex="1"><mxGeometry x="182.6" y="638.87" width="50" height="15" as="geometry"/></mxCell><mxCell id="nm2zZelOTq_9gEp1zpE1-37" style="edgeStyle=orthogonalEdgeStyle;rounded=0;orthogonalLoop=1;jettySize=auto;html=1;entryX=0;entryY=0.5;entryDx=0;entryDy=0;entryPerimeter=0;" parent="1" target="nm2zZelOTq_9gEp1zpE1-39" edge="1"><mxGeometry relative="1" as="geometry"><mxPoint x="230.59999999999968" y="520.375" as="sourcePoint"/></mxGeometry></mxCell><mxCell id="nm2zZelOTq_9gEp1zpE1-38" style="edgeStyle=orthogonalEdgeStyle;rounded=0;orthogonalLoop=1;jettySize=auto;html=1;entryX=0;entryY=0.5;entryDx=0;entryDy=0;entryPerimeter=0;" parent="1" source="nm2zZelOTq_9gEp1zpE1-39" target="nm2zZelOTq_9gEp1zpE1-52" edge="1"><mxGeometry relative="1" as="geometry"/></mxCell><mxCell id="nm2zZelOTq_9gEp1zpE1-39" value="DL Bridge" style="sketch=0;points=[[0,0,0],[0.25,0,0],[0.5,0,0],[0.75,0,0],[1,0,0],[0,1,0],[0.25,1,0],[0.5,1,0],[0.75,1,0],[1,1,0],[0,0.25,0],[0,0.5,0],[0,0.75,0],[1,0.25,0],[1,0.5,0],[1,0.75,0]];outlineConnect=0;fontColor=#232F3E;gradientColor=#4AB29A;gradientDirection=north;fillColor=#116D5B;strokeColor=#ffffff;dashed=0;verticalLabelPosition=bottom;verticalAlign=top;align=center;html=1;fontSize=12;fontStyle=0;aspect=fixed;shape=mxgraph.aws4.resourceIcon;resIcon=mxgraph.aws4.machine_learning;" parent="1" vertex="1"><mxGeometry x="299.6" y="505" width="30.75" height="30.75" as="geometry"/></mxCell><mxCell id="nm2zZelOTq_9gEp1zpE1-40" style="edgeStyle=orthogonalEdgeStyle;rounded=0;orthogonalLoop=1;jettySize=auto;html=1;entryX=0;entryY=0.5;entryDx=0;entryDy=0;entryPerimeter=0;" parent="1" source="nm2zZelOTq_9gEp1zpE1-41" target="nm2zZelOTq_9gEp1zpE1-53" edge="1"><mxGeometry relative="1" as="geometry"/></mxCell><mxCell id="nm2zZelOTq_9gEp1zpE1-41" value="Rule Engine Bridge" style="sketch=0;outlineConnect=0;fontColor=#232F3E;gradientColor=none;fillColor=#B0084D;strokeColor=none;dashed=0;verticalLabelPosition=bottom;verticalAlign=top;align=center;html=1;fontSize=12;fontStyle=0;aspect=fixed;pointerEvents=1;shape=mxgraph.aws4.rule_2;" parent="1" vertex="1"><mxGeometry x="298.53" y="564.87" width="31.82" height="31" as="geometry"/></mxCell><mxCell id="nm2zZelOTq_9gEp1zpE1-42" style="edgeStyle=orthogonalEdgeStyle;rounded=0;orthogonalLoop=1;jettySize=auto;html=1;entryX=0;entryY=0.5;entryDx=0;entryDy=0;entryPerimeter=0;" parent="1" target="nm2zZelOTq_9gEp1zpE1-31" edge="1"><mxGeometry relative="1" as="geometry"><mxPoint x="86.59999999999968" y="457" as="sourcePoint"/><Array as="points"><mxPoint x="86.6" y="457.87"/></Array></mxGeometry></mxCell><mxCell id="nm2zZelOTq_9gEp1zpE1-43" style="edgeStyle=orthogonalEdgeStyle;rounded=0;orthogonalLoop=1;jettySize=auto;html=1;entryX=0;entryY=0.5;entryDx=0;entryDy=0;entryPerimeter=0;" parent="1" target="nm2zZelOTq_9gEp1zpE1-36" edge="1"><mxGeometry relative="1" as="geometry"><mxPoint x="86.59999999999968" y="646" as="sourcePoint"/><Array as="points"><mxPoint x="86.6" y="646.87"/><mxPoint x="134.6" y="646.87"/></Array></mxGeometry></mxCell><mxCell id="nm2zZelOTq_9gEp1zpE1-44" style="edgeStyle=orthogonalEdgeStyle;rounded=0;orthogonalLoop=1;jettySize=auto;html=1;entryX=0;entryY=0.5;entryDx=0;entryDy=0;entryPerimeter=0;" parent="1" edge="1"><mxGeometry relative="1" as="geometry"><mxPoint x="86.59999999999968" y="579.8699999999999" as="sourcePoint"/><Array as="points"><mxPoint x="86.6" y="580.74"/><mxPoint x="134.6" y="580.74"/></Array><mxPoint x="182.59999999999968" y="580.24" as="targetPoint"/></mxGeometry></mxCell><mxCell id="nm2zZelOTq_9gEp1zpE1-45" style="edgeStyle=orthogonalEdgeStyle;rounded=0;orthogonalLoop=1;jettySize=auto;html=1;entryX=0;entryY=0.5;entryDx=0;entryDy=0;entryPerimeter=0;" parent="1" edge="1"><mxGeometry relative="1" as="geometry"><mxPoint x="84.59999999999968" y="519.8800000000001" as="sourcePoint"/><Array as="points"><mxPoint x="84.6" y="520.75"/><mxPoint x="132.6" y="520.75"/></Array><mxPoint x="180.59999999999968" y="520.25" as="targetPoint"/></mxGeometry></mxCell><mxCell id="nm2zZelOTq_9gEp1zpE1-46" value="" style="endArrow=none;html=1;rounded=0;" parent="1" edge="1"><mxGeometry width="50" height="50" relative="1" as="geometry"><mxPoint x="85.59999999999968" y="647" as="sourcePoint"/><mxPoint x="85.59999999999968" y="457" as="targetPoint"/></mxGeometry></mxCell><mxCell id="nm2zZelOTq_9gEp1zpE1-47" style="edgeStyle=orthogonalEdgeStyle;rounded=0;orthogonalLoop=1;jettySize=auto;html=1;entryX=0;entryY=0.5;entryDx=0;entryDy=0;entryPerimeter=0;" parent="1" source="nm2zZelOTq_9gEp1zpE1-48" target="nm2zZelOTq_9gEp1zpE1-51" edge="1"><mxGeometry relative="1" as="geometry"/></mxCell><mxCell id="nm2zZelOTq_9gEp1zpE1-48" value="ML Bridge" style="sketch=0;points=[[0,0,0],[0.25,0,0],[0.5,0,0],[0.75,0,0],[1,0,0],[0,1,0],[0.25,1,0],[0.5,1,0],[0.75,1,0],[1,1,0],[0,0.25,0],[0,0.5,0],[0,0.75,0],[1,0.25,0],[1,0.5,0],[1,0.75,0]];outlineConnect=0;fontColor=#232F3E;gradientColor=#4AB29A;gradientDirection=north;fillColor=#116D5B;strokeColor=#ffffff;dashed=0;verticalLabelPosition=bottom;verticalAlign=top;align=center;html=1;fontSize=12;fontStyle=0;aspect=fixed;shape=mxgraph.aws4.resourceIcon;resIcon=mxgraph.aws4.machine_learning;" parent="1" vertex="1"><mxGeometry x="298.53" y="442" width="30.75" height="30.75" as="geometry"/></mxCell><mxCell id="nm2zZelOTq_9gEp1zpE1-49" style="edgeStyle=orthogonalEdgeStyle;rounded=0;orthogonalLoop=1;jettySize=auto;html=1;entryX=0;entryY=0.5;entryDx=0;entryDy=0;entryPerimeter=0;" parent="1" source="nm2zZelOTq_9gEp1zpE1-50" target="nm2zZelOTq_9gEp1zpE1-55" edge="1"><mxGeometry relative="1" as="geometry"/></mxCell><mxCell id="nm2zZelOTq_9gEp1zpE1-50" value="Optimization" style="sketch=0;outlineConnect=0;fontColor=#232F3E;gradientColor=none;fillColor=#B0084D;strokeColor=none;dashed=0;verticalLabelPosition=bottom;verticalAlign=top;align=center;html=1;fontSize=12;fontStyle=0;aspect=fixed;pointerEvents=1;shape=mxgraph.aws4.rule_2;" parent="1" vertex="1"><mxGeometry x="299.6" y="630.87" width="31.82" height="31" as="geometry"/></mxCell><mxCell id="nm2zZelOTq_9gEp1zpE1-51" value="ml_function_topic" style="verticalLabelPosition=bottom;html=1;verticalAlign=top;align=center;strokeColor=none;fillColor=#00BEF2;shape=mxgraph.azure.queue_generic;pointerEvents=1;" parent="1" vertex="1"><mxGeometry x="415.6" y="450.5" width="50" height="15" as="geometry"/></mxCell><mxCell id="nm2zZelOTq_9gEp1zpE1-52" value="dl_function_topic" style="verticalLabelPosition=bottom;html=1;verticalAlign=top;align=center;strokeColor=none;fillColor=#00BEF2;shape=mxgraph.azure.queue_generic;pointerEvents=1;" parent="1" vertex="1"><mxGeometry x="414.6" y="513.5" width="50" height="15" as="geometry"/></mxCell><mxCell id="nm2zZelOTq_9gEp1zpE1-53" value="rule_function_topic" style="verticalLabelPosition=bottom;html=1;verticalAlign=top;align=center;strokeColor=none;fillColor=#00BEF2;shape=mxgraph.azure.queue_generic;pointerEvents=1;" parent="1" vertex="1"><mxGeometry x="415.6" y="573.5" width="50" height="15" as="geometry"/></mxCell><mxCell id="nm2zZelOTq_9gEp1zpE1-54" style="edgeStyle=orthogonalEdgeStyle;rounded=0;orthogonalLoop=1;jettySize=auto;html=1;entryX=0.5;entryY=1;entryDx=0;entryDy=0;exitX=1;exitY=0.51;exitDx=0;exitDy=0;exitPerimeter=0;" parent="1" source="nm2zZelOTq_9gEp1zpE1-55" target="15" edge="1"><mxGeometry relative="1" as="geometry"><mxPoint x="466.5999999999997" y="697.0666666666666" as="sourcePoint"/><mxPoint x="525" y="408" as="targetPoint"/><Array as="points"><mxPoint x="525" y="647"/></Array></mxGeometry></mxCell><mxCell id="nm2zZelOTq_9gEp1zpE1-55" value="optimization_function_topic" style="verticalLabelPosition=bottom;html=1;verticalAlign=top;align=center;strokeColor=none;fillColor=#00BEF2;shape=mxgraph.azure.queue_generic;pointerEvents=1;" parent="1" vertex="1"><mxGeometry x="416.6" y="639.5" width="50" height="15" as="geometry"/></mxCell><mxCell id="nm2zZelOTq_9gEp1zpE1-56" style="edgeStyle=orthogonalEdgeStyle;rounded=0;orthogonalLoop=1;jettySize=auto;html=1;" parent="1" edge="1"><mxGeometry relative="1" as="geometry"><mxPoint x="464.5999999999997" y="458" as="sourcePoint"/><Array as="points"><mxPoint x="464.6" y="458.87"/></Array><mxPoint x="530" y="458" as="targetPoint"/></mxGeometry></mxCell><mxCell id="nm2zZelOTq_9gEp1zpE1-57" style="edgeStyle=orthogonalEdgeStyle;rounded=0;orthogonalLoop=1;jettySize=auto;html=1;" parent="1" edge="1"><mxGeometry relative="1" as="geometry"><mxPoint x="464.5999999999997" y="580.8699999999999" as="sourcePoint"/><Array as="points"><mxPoint x="464.6" y="581.74"/><mxPoint x="512.6" y="581.74"/></Array><mxPoint x="530" y="581" as="targetPoint"/></mxGeometry></mxCell><mxCell id="nm2zZelOTq_9gEp1zpE1-58" style="edgeStyle=orthogonalEdgeStyle;rounded=0;orthogonalLoop=1;jettySize=auto;html=1;" parent="1" edge="1"><mxGeometry relative="1" as="geometry"><mxPoint x="462.5999999999997" y="520.8800000000001" as="sourcePoint"/><Array as="points"><mxPoint x="462.6" y="521.75"/><mxPoint x="510.6" y="521.75"/></Array><mxPoint x="530" y="521" as="targetPoint"/></mxGeometry></mxCell><mxCell id="nm2zZelOTq_9gEp1zpE1-59" style="edgeStyle=orthogonalEdgeStyle;rounded=0;orthogonalLoop=1;jettySize=auto;html=1;entryX=0.5;entryY=0;entryDx=0;entryDy=0;" parent="1" source="nm2zZelOTq_9gEp1zpE1-60" target="nm2zZelOTq_9gEp1zpE1-25" edge="1"><mxGeometry relative="1" as="geometry"/></mxCell><mxCell id="nm2zZelOTq_9gEp1zpE1-60" value="Delta Service" style="rounded=1;whiteSpace=wrap;html=1;" parent="1" vertex="1"><mxGeometry x="1035" y="238" width="120" height="60" as="geometry"/></mxCell><mxCell id="nm2zZelOTq_9gEp1zpE1-61" style="edgeStyle=orthogonalEdgeStyle;rounded=0;orthogonalLoop=1;jettySize=auto;html=1;" parent="1" source="nm2zZelOTq_9gEp1zpE1-63" target="nm2zZelOTq_9gEp1zpE1-60" edge="1"><mxGeometry relative="1" as="geometry"/></mxCell><mxCell id="nm2zZelOTq_9gEp1zpE1-63" value="BrainFeatureCommand" style="verticalLabelPosition=bottom;html=1;verticalAlign=top;align=center;strokeColor=none;fillColor=#00BEF2;shape=mxgraph.azure.queue_generic;pointerEvents=1;" parent="1" vertex="1"><mxGeometry x="975" y="140.5" width="50" height="15" as="geometry"/></mxCell><mxCell id="nm2zZelOTq_9gEp1zpE1-64" style="edgeStyle=orthogonalEdgeStyle;rounded=0;orthogonalLoop=1;jettySize=auto;html=1;entryX=1;entryY=0.51;entryDx=0;entryDy=0;entryPerimeter=0;exitX=0.5;exitY=1;exitDx=0;exitDy=0;" parent="1" source="nm2zZelOTq_9gEp1zpE1-65" target="nm2zZelOTq_9gEp1zpE1-69" edge="1"><mxGeometry relative="1" as="geometry"/></mxCell><mxCell id="nm2zZelOTq_9gEp1zpE1-65" value="Function Resolver" style="rounded=1;whiteSpace=wrap;html=1;" parent="1" vertex="1"><mxGeometry x="1031" y="568" width="120" height="60" as="geometry"/></mxCell><mxCell id="nm2zZelOTq_9gEp1zpE1-66" style="edgeStyle=orthogonalEdgeStyle;rounded=0;orthogonalLoop=1;jettySize=auto;html=1;entryX=0.5;entryY=0;entryDx=0;entryDy=0;" parent="1" source="nm2zZelOTq_9gEp1zpE1-67" target="nm2zZelOTq_9gEp1zpE1-65" edge="1"><mxGeometry relative="1" as="geometry"/></mxCell><mxCell id="nm2zZelOTq_9gEp1zpE1-67" value="Realtime &amp;amp; &lt;br&gt;Time Scheduler" style="verticalLabelPosition=bottom;html=1;verticalAlign=top;align=center;strokeColor=none;fillColor=#00BEF2;shape=mxgraph.azure.scheduler;pointerEvents=1;" parent="1" vertex="1"><mxGeometry x="1071" y="437.87" width="40" height="50" as="geometry"/></mxCell><mxCell id="nm2zZelOTq_9gEp1zpE1-68" style="edgeStyle=orthogonalEdgeStyle;rounded=0;orthogonalLoop=1;jettySize=auto;html=1;entryX=1;entryY=0.5;entryDx=0;entryDy=0;" parent="1" source="nm2zZelOTq_9gEp1zpE1-69" target="nm2zZelOTq_9gEp1zpE1-71" edge="1"><mxGeometry relative="1" as="geometry"/></mxCell><mxCell id="nm2zZelOTq_9gEp1zpE1-69" value="Keys &amp;amp; Functions&lt;br&gt;BrainFunctionNameSet" style="verticalLabelPosition=bottom;html=1;verticalAlign=top;align=center;strokeColor=none;fillColor=#00BEF2;shape=mxgraph.azure.queue_generic;pointerEvents=1;" parent="1" vertex="1"><mxGeometry x="985" y="721.74" width="50" height="15" as="geometry"/></mxCell><mxCell id="nm2zZelOTq_9gEp1zpE1-70" style="edgeStyle=orthogonalEdgeStyle;rounded=0;orthogonalLoop=1;jettySize=auto;html=1;entryX=1;entryY=0.51;entryDx=0;entryDy=0;entryPerimeter=0;" parent="1" source="nm2zZelOTq_9gEp1zpE1-71" target="nm2zZelOTq_9gEp1zpE1-75" edge="1"><mxGeometry relative="1" as="geometry"/></mxCell><mxCell id="nm2zZelOTq_9gEp1zpE1-71" value="Feature Resolver" style="rounded=1;whiteSpace=wrap;html=1;" parent="1" vertex="1"><mxGeometry x="728" y="698.87" width="202" height="60" as="geometry"/></mxCell><mxCell id="nm2zZelOTq_9gEp1zpE1-72" style="edgeStyle=orthogonalEdgeStyle;rounded=0;orthogonalLoop=1;jettySize=auto;html=1;exitX=0;exitY=0.5;exitDx=0;exitDy=0;" parent="1" source="nm2zZelOTq_9gEp1zpE1-73" edge="1"><mxGeometry relative="1" as="geometry"><mxPoint x="86" y="558" as="targetPoint"/><mxPoint x="697" y="726.9000000000001" as="sourcePoint"/><Array as="points"><mxPoint x="46" y="738"/><mxPoint x="46" y="558"/></Array></mxGeometry></mxCell><mxCell id="nm2zZelOTq_9gEp1zpE1-73" value="Input Function Router" style="rounded=1;whiteSpace=wrap;html=1;" parent="1" vertex="1"><mxGeometry x="256" y="698.87" width="120" height="60" as="geometry"/></mxCell><mxCell id="nm2zZelOTq_9gEp1zpE1-74" style="edgeStyle=orthogonalEdgeStyle;rounded=0;orthogonalLoop=1;jettySize=auto;html=1;entryX=1;entryY=0.5;entryDx=0;entryDy=0;" parent="1" source="nm2zZelOTq_9gEp1zpE1-75" target="nm2zZelOTq_9gEp1zpE1-73" edge="1"><mxGeometry relative="1" as="geometry"/></mxCell><mxCell id="nm2zZelOTq_9gEp1zpE1-75" value="Keys, Features &amp;amp; Functions&lt;br&gt;BrainExecutableFunctionSet" style="verticalLabelPosition=bottom;html=1;verticalAlign=top;align=center;strokeColor=none;fillColor=#00BEF2;shape=mxgraph.azure.queue_generic;pointerEvents=1;" parent="1" vertex="1"><mxGeometry x="506" y="721.37" width="50" height="15" as="geometry"/></mxCell><mxCell id="nm2zZelOTq_9gEp1zpE1-76" value="Read Features" style="shape=flexArrow;endArrow=classic;html=1;rounded=0;entryX=0.447;entryY=-0.087;entryDx=0;entryDy=0;entryPerimeter=0;exitX=0.422;exitY=1.042;exitDx=0;exitDy=0;exitPerimeter=0;" parent="1" edge="1"><mxGeometry width="50" height="50" relative="1" as="geometry"><mxPoint x="783.6400000000003" y="191.36" as="sourcePoint"/><mxPoint x="786.6400000000003" y="702.6499999999999" as="targetPoint"/></mxGeometry></mxCell><mxCell id="nm2zZelOTq_9gEp1zpE1-78" style="edgeStyle=orthogonalEdgeStyle;rounded=0;orthogonalLoop=1;jettySize=auto;html=1;entryX=0;entryY=0.5;entryDx=0;entryDy=0;entryPerimeter=0;exitX=0.5;exitY=0;exitDx=0;exitDy=0;" parent="1" source="15" target="nm2zZelOTq_9gEp1zpE1-85" edge="1"><mxGeometry relative="1" as="geometry"><Array as="points"><mxPoint x="525" y="86"/></Array><mxPoint x="525" y="171.5" as="sourcePoint"/></mxGeometry></mxCell><mxCell id="nm2zZelOTq_9gEp1zpE1-80" value="Knowledge Repository" style="rounded=1;whiteSpace=wrap;html=1;" parent="1" vertex="1"><mxGeometry x="811" y="238" width="100" height="60" as="geometry"/></mxCell><mxCell id="nm2zZelOTq_9gEp1zpE1-82" style="edgeStyle=orthogonalEdgeStyle;rounded=0;orthogonalLoop=1;jettySize=auto;html=1;entryX=0;entryY=0.5;entryDx=0;entryDy=0;" parent="1" source="nm2zZelOTq_9gEp1zpE1-83" target="nm2zZelOTq_9gEp1zpE1-80" edge="1"><mxGeometry relative="1" as="geometry"/></mxCell><mxCell id="nm2zZelOTq_9gEp1zpE1-83" value="Attribute Updates" style="verticalLabelPosition=bottom;html=1;verticalAlign=top;align=center;strokeColor=none;fillColor=#00BEF2;shape=mxgraph.azure.queue_generic;pointerEvents=1;" parent="1" vertex="1"><mxGeometry x="650" y="260" width="50" height="15" as="geometry"/></mxCell><mxCell id="nm2zZelOTq_9gEp1zpE1-84" style="edgeStyle=orthogonalEdgeStyle;rounded=0;orthogonalLoop=1;jettySize=auto;html=1;entryX=0.602;entryY=0;entryDx=0;entryDy=0;entryPerimeter=0;" parent="1" source="nm2zZelOTq_9gEp1zpE1-85" target="nm2zZelOTq_9gEp1zpE1-27" edge="1"><mxGeometry relative="1" as="geometry"/></mxCell><mxCell id="nm2zZelOTq_9gEp1zpE1-85" value="BrainFeatureCommand" style="verticalLabelPosition=bottom;html=1;verticalAlign=top;align=center;strokeColor=none;fillColor=#00BEF2;shape=mxgraph.azure.queue_generic;pointerEvents=1;" parent="1" vertex="1"><mxGeometry x="610" y="78" width="50" height="15" as="geometry"/></mxCell><mxCell id="nm2zZelOTq_9gEp1zpE1-86" value="Config Service&lt;br&gt;Function Feature Mapping" style="outlineConnect=0;dashed=0;verticalLabelPosition=bottom;verticalAlign=top;align=center;html=1;shape=mxgraph.aws3.config_rule;fillColor=#759C3E;gradientColor=none;" parent="1" vertex="1"><mxGeometry x="900" y="558.87" width="55.5" height="72" as="geometry"/></mxCell><mxCell id="nm2zZelOTq_9gEp1zpE1-87" value="" style="shape=flexArrow;endArrow=classic;html=1;rounded=0;width=8;endSize=6.45;" parent="1" edge="1"><mxGeometry width="50" height="50" relative="1" as="geometry"><mxPoint x="965" y="603.8699999999999" as="sourcePoint"/><mxPoint x="1025" y="604" as="targetPoint"/></mxGeometry></mxCell><mxCell id="nm2zZelOTq_9gEp1zpE1-88" value="k1, x1, x2, ..&lt;br&gt;k2, x1, x3, .." style="text;html=1;strokeColor=none;fillColor=none;align=center;verticalAlign=middle;whiteSpace=wrap;rounded=0;" parent="1" vertex="1"><mxGeometry x="1094" y="528.87" width="69" height="30" as="geometry"/></mxCell><mxCell id="nm2zZelOTq_9gEp1zpE1-89" value="k1, f1, f2, f3, ..&lt;br&gt;k2, f3, f4, f5, .." style="text;html=1;strokeColor=none;fillColor=none;align=center;verticalAlign=middle;whiteSpace=wrap;rounded=0;" parent="1" vertex="1"><mxGeometry x="1010" y="674.87" width="81" height="30" as="geometry"/></mxCell><mxCell id="nm2zZelOTq_9gEp1zpE1-90" value="k1, f1 (x1, x2, x3, ..)&lt;br&gt;k2, f3 (x2, x3, x4, ..)" style="text;html=1;strokeColor=none;fillColor=none;align=center;verticalAlign=middle;whiteSpace=wrap;rounded=0;" parent="1" vertex="1"><mxGeometry x="590" y="698" width="110" height="30" as="geometry"/></mxCell><mxCell id="nm2zZelOTq_9gEp1zpE1-91" value="" style="shape=flexArrow;endArrow=classic;html=1;rounded=0;" parent="1" edge="1"><mxGeometry width="50" height="50" relative="1" as="geometry"><mxPoint x="891" y="601.8699999999999" as="sourcePoint"/><mxPoint x="820" y="698" as="targetPoint"/><Array as="points"><mxPoint x="820" y="602"/></Array></mxGeometry></mxCell><mxCell id="14" style="edgeStyle=orthogonalEdgeStyle;rounded=0;orthogonalLoop=1;jettySize=auto;html=1;entryX=0.25;entryY=0;entryDx=0;entryDy=0;" parent="1" source="12" target="15" edge="1"><mxGeometry relative="1" as="geometry"><mxPoint x="465" y="201.5" as="targetPoint"/></mxGeometry></mxCell><mxCell id="12" value="Feature Events" style="verticalLabelPosition=bottom;html=1;verticalAlign=top;align=center;strokeColor=none;fillColor=#00BEF2;shape=mxgraph.azure.queue_generic;pointerEvents=1;" parent="1" vertex="1"><mxGeometry x="350.00000000000006" y="194" width="50" height="15" as="geometry"/></mxCell><mxCell id="16" style="edgeStyle=orthogonalEdgeStyle;rounded=0;orthogonalLoop=1;jettySize=auto;html=1;entryX=0;entryY=0.5;entryDx=0;entryDy=0;entryPerimeter=0;" parent="1" source="15" target="nm2zZelOTq_9gEp1zpE1-83" edge="1"><mxGeometry relative="1" as="geometry"/></mxCell><mxCell id="23" style="edgeStyle=orthogonalEdgeStyle;rounded=0;orthogonalLoop=1;jettySize=auto;html=1;entryX=0;entryY=0.5;entryDx=0;entryDy=0;entryPerimeter=0;" parent="1" source="15" target="22" edge="1"><mxGeometry relative="1" as="geometry"/></mxCell><mxCell id="26" style="edgeStyle=orthogonalEdgeStyle;rounded=0;orthogonalLoop=1;jettySize=auto;html=1;entryX=0;entryY=0.5;entryDx=0;entryDy=0;entryPerimeter=0;" parent="1" source="15" target="25" edge="1"><mxGeometry relative="1" as="geometry"/></mxCell><mxCell id="15" value="Output Function Router" style="rounded=1;whiteSpace=wrap;html=1;" parent="1" vertex="1"><mxGeometry x="465" y="342" width="120" height="60" as="geometry"/></mxCell><mxCell id="22" value="Actions" style="verticalLabelPosition=bottom;html=1;verticalAlign=top;align=center;strokeColor=none;fillColor=#00BEF2;shape=mxgraph.azure.queue_generic;pointerEvents=1;" parent="1" vertex="1"><mxGeometry x="650" y="464.87" width="50" height="15" as="geometry"/></mxCell><mxCell id="28" style="edgeStyle=orthogonalEdgeStyle;rounded=0;orthogonalLoop=1;jettySize=auto;html=1;" parent="1" source="25" target="nm2zZelOTq_9gEp1zpE1-60" edge="1"><mxGeometry relative="1" as="geometry"><Array as="points"><mxPoint x="1050" y="372"/></Array></mxGeometry></mxCell><mxCell id="25" value="Classifier or Rules Results" style="verticalLabelPosition=bottom;html=1;verticalAlign=top;align=center;strokeColor=none;fillColor=#00BEF2;shape=mxgraph.azure.queue_generic;pointerEvents=1;" parent="1" vertex="1"><mxGeometry x="650" y="364.5" width="50" height="15" as="geometry"/></mxCell></root></mxGraphModel></diagram><diagram id="yNHQXIzisvJua4p_iRxP" name="repository-cud"><mxGraphModel dx="1219" dy="686" grid="1" gridSize="10" guides="1" tooltips="1" connect="1" arrows="1" fold="1" page="1" pageScale="1" pageWidth="1169" pageHeight="827" math="0" shadow="0"><root><mxCell id="0"/><mxCell id="1" parent="0"/><mxCell id="572YSaZIMF3PEAkcxAfT-1" value="Primitive&lt;br&gt;Translation" style="rounded=1;whiteSpace=wrap;html=1;fillColor=#CDA2BE;" parent="1" vertex="1"><mxGeometry x="664" y="604" width="370" height="70" as="geometry"/></mxCell><mxCell id="572YSaZIMF3PEAkcxAfT-2" value="Primitive&lt;br&gt;Translation" style="rounded=1;whiteSpace=wrap;html=1;fillColor=#A9C4EB;" parent="1" vertex="1"><mxGeometry x="664" y="504" width="370" height="70" as="geometry"/></mxCell><mxCell id="572YSaZIMF3PEAkcxAfT-3" value="Elasticsearch Driver" style="rounded=0;whiteSpace=wrap;html=1;" parent="1" vertex="1"><mxGeometry x="904" y="519" width="100" height="40" as="geometry"/></mxCell><mxCell id="572YSaZIMF3PEAkcxAfT-4" value="Primitive&lt;br&gt;Translation" style="rounded=1;whiteSpace=wrap;html=1;" parent="1" vertex="1"><mxGeometry x="664" y="404" width="370" height="70" as="geometry"/></mxCell><mxCell id="572YSaZIMF3PEAkcxAfT-5" value="Primitive&lt;br&gt;Translation" style="rounded=1;whiteSpace=wrap;html=1;" parent="1" vertex="1"><mxGeometry x="664" y="309.75" width="370" height="70" as="geometry"/></mxCell><mxCell id="572YSaZIMF3PEAkcxAfT-6" value="Primitive&lt;br&gt;Translation" style="rounded=1;whiteSpace=wrap;html=1;" parent="1" vertex="1"><mxGeometry x="664" y="212" width="370" height="70" as="geometry"/></mxCell><mxCell id="572YSaZIMF3PEAkcxAfT-7" value="Primitive&lt;br&gt;Translation" style="rounded=1;whiteSpace=wrap;html=1;" parent="1" vertex="1"><mxGeometry x="664" y="114" width="370" height="70" as="geometry"/></mxCell><mxCell id="572YSaZIMF3PEAkcxAfT-8" value="Name Service" style="rounded=1;whiteSpace=wrap;html=1;" parent="1" vertex="1"><mxGeometry x="692" y="509" width="120" height="60" as="geometry"/></mxCell><mxCell id="572YSaZIMF3PEAkcxAfT-9" value="Attributes CRUD Listener" style="rounded=1;whiteSpace=wrap;html=1;" parent="1" vertex="1"><mxGeometry x="692" y="409" width="120" height="60" as="geometry"/></mxCell><mxCell id="572YSaZIMF3PEAkcxAfT-10" value="Content CRUD Listener" style="rounded=1;whiteSpace=wrap;html=1;" parent="1" vertex="1"><mxGeometry x="692" y="314" width="120" height="60" as="geometry"/></mxCell><mxCell id="572YSaZIMF3PEAkcxAfT-11" value="Timeseries CRUD Listener" style="rounded=1;whiteSpace=wrap;html=1;" parent="1" vertex="1"><mxGeometry x="692" y="217" width="120" height="60" as="geometry"/></mxCell><mxCell id="572YSaZIMF3PEAkcxAfT-12" value="Predicate CRUD Listener" style="rounded=1;whiteSpace=wrap;html=1;" parent="1" vertex="1"><mxGeometry x="692" y="119" width="120" height="60" as="geometry"/></mxCell><mxCell id="572YSaZIMF3PEAkcxAfT-13" style="edgeStyle=orthogonalEdgeStyle;rounded=0;orthogonalLoop=1;jettySize=auto;html=1;entryX=0;entryY=0.5;entryDx=0;entryDy=0;entryPerimeter=0;" parent="1" source="572YSaZIMF3PEAkcxAfT-22" target="572YSaZIMF3PEAkcxAfT-36" edge="1"><mxGeometry relative="1" as="geometry"/></mxCell><mxCell id="572YSaZIMF3PEAkcxAfT-14" style="edgeStyle=orthogonalEdgeStyle;rounded=0;orthogonalLoop=1;jettySize=auto;html=1;entryX=0;entryY=0.5;entryDx=0;entryDy=0;entryPerimeter=0;" parent="1" source="572YSaZIMF3PEAkcxAfT-22" target="572YSaZIMF3PEAkcxAfT-38" edge="1"><mxGeometry relative="1" as="geometry"/></mxCell><mxCell id="572YSaZIMF3PEAkcxAfT-15" style="edgeStyle=orthogonalEdgeStyle;rounded=0;orthogonalLoop=1;jettySize=auto;html=1;entryX=0;entryY=0.5;entryDx=0;entryDy=0;entryPerimeter=0;" parent="1" source="572YSaZIMF3PEAkcxAfT-22" target="572YSaZIMF3PEAkcxAfT-40" edge="1"><mxGeometry relative="1" as="geometry"/></mxCell><mxCell id="572YSaZIMF3PEAkcxAfT-16" style="edgeStyle=orthogonalEdgeStyle;rounded=0;orthogonalLoop=1;jettySize=auto;html=1;entryX=0;entryY=0.5;entryDx=0;entryDy=0;entryPerimeter=0;" parent="1" source="572YSaZIMF3PEAkcxAfT-22" target="572YSaZIMF3PEAkcxAfT-42" edge="1"><mxGeometry relative="1" as="geometry"/></mxCell><mxCell id="572YSaZIMF3PEAkcxAfT-17" style="edgeStyle=orthogonalEdgeStyle;rounded=0;orthogonalLoop=1;jettySize=auto;html=1;entryX=0;entryY=0.5;entryDx=0;entryDy=0;entryPerimeter=0;" parent="1" source="572YSaZIMF3PEAkcxAfT-22" target="572YSaZIMF3PEAkcxAfT-44" edge="1"><mxGeometry relative="1" as="geometry"/></mxCell><mxCell id="572YSaZIMF3PEAkcxAfT-18" style="edgeStyle=orthogonalEdgeStyle;rounded=0;orthogonalLoop=1;jettySize=auto;html=1;entryX=0;entryY=0.5;entryDx=0;entryDy=0;entryPerimeter=0;" parent="1" source="572YSaZIMF3PEAkcxAfT-22" target="572YSaZIMF3PEAkcxAfT-46" edge="1"><mxGeometry relative="1" as="geometry"/></mxCell><mxCell id="572YSaZIMF3PEAkcxAfT-19" style="edgeStyle=orthogonalEdgeStyle;rounded=0;orthogonalLoop=1;jettySize=auto;html=1;entryX=0;entryY=0.5;entryDx=0;entryDy=0;entryPerimeter=0;" parent="1" source="572YSaZIMF3PEAkcxAfT-22" target="572YSaZIMF3PEAkcxAfT-48" edge="1"><mxGeometry relative="1" as="geometry"/></mxCell><mxCell id="572YSaZIMF3PEAkcxAfT-20" style="edgeStyle=orthogonalEdgeStyle;rounded=0;orthogonalLoop=1;jettySize=auto;html=1;entryX=0;entryY=0.5;entryDx=0;entryDy=0;entryPerimeter=0;fontSize=18;" parent="1" source="572YSaZIMF3PEAkcxAfT-22" target="572YSaZIMF3PEAkcxAfT-52" edge="1"><mxGeometry relative="1" as="geometry"/></mxCell><mxCell id="572YSaZIMF3PEAkcxAfT-21" style="edgeStyle=orthogonalEdgeStyle;rounded=0;orthogonalLoop=1;jettySize=auto;html=1;entryX=0;entryY=0.5;entryDx=0;entryDy=0;entryPerimeter=0;fontSize=18;" parent="1" source="572YSaZIMF3PEAkcxAfT-22" target="572YSaZIMF3PEAkcxAfT-54" edge="1"><mxGeometry relative="1" as="geometry"/></mxCell><mxCell id="572YSaZIMF3PEAkcxAfT-22" value="CRUD Resolver" style="rounded=1;whiteSpace=wrap;html=1;" parent="1" vertex="1"><mxGeometry x="200" y="307.75" width="200" height="175" as="geometry"/></mxCell><mxCell id="572YSaZIMF3PEAkcxAfT-23" value="Arango DB" style="aspect=fixed;html=1;points=[];align=center;image;fontSize=12;image=img/lib/azure2/management_governance/Resource_Graph_Explorer.svg;" parent="1" vertex="1"><mxGeometry x="1069.92" y="121" width="48.16" height="46" as="geometry"/></mxCell><mxCell id="572YSaZIMF3PEAkcxAfT-24" value="Influx" style="sketch=0;points=[[0,0,0],[0.25,0,0],[0.5,0,0],[0.75,0,0],[1,0,0],[0,1,0],[0.25,1,0],[0.5,1,0],[0.75,1,0],[1,1,0],[0,0.25,0],[0,0.5,0],[0,0.75,0],[1,0.25,0],[1,0.5,0],[1,0.75,0]];outlineConnect=0;fontColor=#232F3E;gradientColor=#4D72F3;gradientDirection=north;fillColor=#3334B9;strokeColor=#ffffff;dashed=0;verticalLabelPosition=bottom;verticalAlign=top;align=center;html=1;fontSize=12;fontStyle=0;aspect=fixed;shape=mxgraph.aws4.resourceIcon;resIcon=mxgraph.aws4.timestream;" parent="1" vertex="1"><mxGeometry x="1067.5" y="222" width="50" height="50" as="geometry"/></mxCell><mxCell id="572YSaZIMF3PEAkcxAfT-25" value="Azure Blob Store" style="sketch=0;points=[[0,0,0],[0.25,0,0],[0.5,0,0],[0.75,0,0],[1,0,0],[0,1,0],[0.25,1,0],[0.5,1,0],[0.75,1,0],[1,1,0],[0,0.25,0],[0,0.5,0],[0,0.75,0],[1,0.25,0],[1,0.5,0],[1,0.75,0]];outlineConnect=0;fontColor=#232F3E;gradientColor=#60A337;gradientDirection=north;fillColor=#277116;strokeColor=#ffffff;dashed=0;verticalLabelPosition=bottom;verticalAlign=top;align=center;html=1;fontSize=12;fontStyle=0;aspect=fixed;shape=mxgraph.aws4.resourceIcon;resIcon=mxgraph.aws4.s3;" parent="1" vertex="1"><mxGeometry x="1066" y="316.5" width="53" height="53" as="geometry"/></mxCell><mxCell id="572YSaZIMF3PEAkcxAfT-26" value="Mongo DB??" style="sketch=0;points=[[0,0,0],[0.25,0,0],[0.5,0,0],[0.75,0,0],[1,0,0],[0,1,0],[0.25,1,0],[0.5,1,0],[0.75,1,0],[1,1,0],[0,0.25,0],[0,0.5,0],[0,0.75,0],[1,0.25,0],[1,0.5,0],[1,0.75,0]];outlineConnect=0;fontColor=#232F3E;gradientColor=#4D72F3;gradientDirection=north;fillColor=#3334B9;strokeColor=#ffffff;dashed=0;verticalLabelPosition=bottom;verticalAlign=top;align=center;html=1;fontSize=12;fontStyle=0;aspect=fixed;shape=mxgraph.aws4.resourceIcon;resIcon=mxgraph.aws4.documentdb_with_mongodb_compatibility;" parent="1" vertex="1"><mxGeometry x="1067.5" y="410" width="49" height="49" as="geometry"/></mxCell><mxCell id="572YSaZIMF3PEAkcxAfT-27" value="Elasticsearch" style="sketch=0;points=[[0,0,0],[0.25,0,0],[0.5,0,0],[0.75,0,0],[1,0,0],[0,1,0],[0.25,1,0],[0.5,1,0],[0.75,1,0],[1,1,0],[0,0.25,0],[0,0.5,0],[0,0.75,0],[1,0.25,0],[1,0.5,0],[1,0.75,0]];outlineConnect=0;fontColor=#232F3E;gradientColor=#945DF2;gradientDirection=north;fillColor=#5A30B5;strokeColor=#ffffff;dashed=0;verticalLabelPosition=bottom;verticalAlign=top;align=center;html=1;fontSize=12;fontStyle=0;aspect=fixed;shape=mxgraph.aws4.resourceIcon;resIcon=mxgraph.aws4.elasticsearch_service;" parent="1" vertex="1"><mxGeometry x="1065.6599999999999" y="514" width="50" height="50" as="geometry"/></mxCell><mxCell id="572YSaZIMF3PEAkcxAfT-28" value="Validation Service" style="rounded=1;whiteSpace=wrap;html=1;" parent="1" vertex="1"><mxGeometry x="124" y="365.25" width="120" height="60" as="geometry"/></mxCell><mxCell id="572YSaZIMF3PEAkcxAfT-29" value="Arango Driver" style="rounded=0;whiteSpace=wrap;html=1;" parent="1" vertex="1"><mxGeometry x="904" y="129" width="100" height="40" as="geometry"/></mxCell><mxCell id="572YSaZIMF3PEAkcxAfT-30" value="Influx Driver" style="rounded=0;whiteSpace=wrap;html=1;" parent="1" vertex="1"><mxGeometry x="904" y="227" width="100" height="40" as="geometry"/></mxCell><mxCell id="572YSaZIMF3PEAkcxAfT-31" value="Azure Driver" style="rounded=0;whiteSpace=wrap;html=1;" parent="1" vertex="1"><mxGeometry x="904" y="324.75" width="100" height="40" as="geometry"/></mxCell><mxCell id="572YSaZIMF3PEAkcxAfT-32" value="Mongo Driver" style="rounded=0;whiteSpace=wrap;html=1;" parent="1" vertex="1"><mxGeometry x="904" y="419" width="100" height="40" as="geometry"/></mxCell><mxCell id="572YSaZIMF3PEAkcxAfT-33" value="Id Service" style="rounded=1;whiteSpace=wrap;html=1;" parent="1" vertex="1"><mxGeometry x="692" y="609" width="120" height="60" as="geometry"/></mxCell><mxCell id="572YSaZIMF3PEAkcxAfT-34" value="Mongo DB" style="sketch=0;points=[[0,0,0],[0.25,0,0],[0.5,0,0],[0.75,0,0],[1,0,0],[0,1,0],[0.25,1,0],[0.5,1,0],[0.75,1,0],[1,1,0],[0,0.25,0],[0,0.5,0],[0,0.75,0],[1,0.25,0],[1,0.5,0],[1,0.75,0]];outlineConnect=0;fontColor=#232F3E;gradientColor=#4D72F3;gradientDirection=north;fillColor=#3334B9;strokeColor=#ffffff;dashed=0;verticalLabelPosition=bottom;verticalAlign=top;align=center;html=1;fontSize=12;fontStyle=0;aspect=fixed;shape=mxgraph.aws4.resourceIcon;resIcon=mxgraph.aws4.documentdb_with_mongodb_compatibility;" parent="1" vertex="1"><mxGeometry x="1065.6599999999999" y="609.5" width="49" height="49" as="geometry"/></mxCell><mxCell id="572YSaZIMF3PEAkcxAfT-35" value="Mongo Driver" style="rounded=0;whiteSpace=wrap;html=1;" parent="1" vertex="1"><mxGeometry x="904" y="614" width="100" height="40" as="geometry"/></mxCell><mxCell id="572YSaZIMF3PEAkcxAfT-36" value="knowledge_updates" style="verticalLabelPosition=bottom;html=1;verticalAlign=top;align=center;strokeColor=none;fillColor=#00BEF2;shape=mxgraph.azure.queue_generic;pointerEvents=1;" parent="1" vertex="1"><mxGeometry x="325" y="554" width="50" height="15" as="geometry"/></mxCell><mxCell id="572YSaZIMF3PEAkcxAfT-37" style="edgeStyle=orthogonalEdgeStyle;rounded=0;orthogonalLoop=1;jettySize=auto;html=1;entryX=0;entryY=0.5;entryDx=0;entryDy=0;" parent="1" source="572YSaZIMF3PEAkcxAfT-38" target="572YSaZIMF3PEAkcxAfT-7" edge="1"><mxGeometry relative="1" as="geometry"/></mxCell><mxCell id="572YSaZIMF3PEAkcxAfT-38" value="Entity/Predicate Updates" style="verticalLabelPosition=bottom;html=1;verticalAlign=top;align=center;strokeColor=none;fillColor=#00BEF2;shape=mxgraph.azure.queue_generic;pointerEvents=1;" parent="1" vertex="1"><mxGeometry x="514" y="141.5" width="50" height="15" as="geometry"/></mxCell><mxCell id="572YSaZIMF3PEAkcxAfT-39" style="edgeStyle=orthogonalEdgeStyle;rounded=0;orthogonalLoop=1;jettySize=auto;html=1;entryX=0;entryY=0.5;entryDx=0;entryDy=0;" parent="1" source="572YSaZIMF3PEAkcxAfT-40" target="572YSaZIMF3PEAkcxAfT-6" edge="1"><mxGeometry relative="1" as="geometry"/></mxCell><mxCell id="572YSaZIMF3PEAkcxAfT-40" value="Time series Updates" style="verticalLabelPosition=bottom;html=1;verticalAlign=top;align=center;strokeColor=none;fillColor=#00BEF2;shape=mxgraph.azure.queue_generic;pointerEvents=1;" parent="1" vertex="1"><mxGeometry x="514" y="239.5" width="50" height="15" as="geometry"/></mxCell><mxCell id="572YSaZIMF3PEAkcxAfT-41" style="edgeStyle=orthogonalEdgeStyle;rounded=0;orthogonalLoop=1;jettySize=auto;html=1;entryX=0;entryY=0.5;entryDx=0;entryDy=0;" parent="1" source="572YSaZIMF3PEAkcxAfT-42" target="572YSaZIMF3PEAkcxAfT-5" edge="1"><mxGeometry relative="1" as="geometry"/></mxCell><mxCell id="572YSaZIMF3PEAkcxAfT-42" value="Content Updates" style="verticalLabelPosition=bottom;html=1;verticalAlign=top;align=center;strokeColor=none;fillColor=#00BEF2;shape=mxgraph.azure.queue_generic;pointerEvents=1;" parent="1" vertex="1"><mxGeometry x="514" y="337.25" width="50" height="15" as="geometry"/></mxCell><mxCell id="572YSaZIMF3PEAkcxAfT-43" style="edgeStyle=orthogonalEdgeStyle;rounded=0;orthogonalLoop=1;jettySize=auto;html=1;" parent="1" source="572YSaZIMF3PEAkcxAfT-44" target="572YSaZIMF3PEAkcxAfT-4" edge="1"><mxGeometry relative="1" as="geometry"/></mxCell><mxCell id="572YSaZIMF3PEAkcxAfT-44" value="Atomic Attribute Updates" style="verticalLabelPosition=bottom;html=1;verticalAlign=top;align=center;strokeColor=none;fillColor=#00BEF2;shape=mxgraph.azure.queue_generic;pointerEvents=1;" parent="1" vertex="1"><mxGeometry x="514" y="431.5" width="50" height="15" as="geometry"/></mxCell><mxCell id="572YSaZIMF3PEAkcxAfT-45" style="edgeStyle=orthogonalEdgeStyle;rounded=0;orthogonalLoop=1;jettySize=auto;html=1;entryX=0;entryY=0.5;entryDx=0;entryDy=0;" parent="1" source="572YSaZIMF3PEAkcxAfT-46" target="572YSaZIMF3PEAkcxAfT-2" edge="1"><mxGeometry relative="1" as="geometry"/></mxCell><mxCell id="572YSaZIMF3PEAkcxAfT-46" value="Name Updates" style="verticalLabelPosition=bottom;html=1;verticalAlign=top;align=center;strokeColor=none;fillColor=#00BEF2;shape=mxgraph.azure.queue_generic;pointerEvents=1;" parent="1" vertex="1"><mxGeometry x="514" y="531.5" width="50" height="15" as="geometry"/></mxCell><mxCell id="572YSaZIMF3PEAkcxAfT-47" style="edgeStyle=orthogonalEdgeStyle;rounded=0;orthogonalLoop=1;jettySize=auto;html=1;" parent="1" source="572YSaZIMF3PEAkcxAfT-48" target="572YSaZIMF3PEAkcxAfT-1" edge="1"><mxGeometry relative="1" as="geometry"/></mxCell><mxCell id="572YSaZIMF3PEAkcxAfT-48" value="Biz Id Updates" style="verticalLabelPosition=bottom;html=1;verticalAlign=top;align=center;strokeColor=none;fillColor=#00BEF2;shape=mxgraph.azure.queue_generic;pointerEvents=1;" parent="1" vertex="1"><mxGeometry x="514" y="631.5" width="50" height="15" as="geometry"/></mxCell><mxCell id="572YSaZIMF3PEAkcxAfT-49" value="&lt;font style=&quot;font-size: 18px;&quot;&gt;Data will be duplicated across&lt;/font&gt;" style="text;html=1;resizable=0;autosize=1;align=center;verticalAlign=middle;points=[];fillColor=none;strokeColor=none;rounded=0;" parent="1" vertex="1"><mxGeometry x="160" y="169" width="250" height="20" as="geometry"/></mxCell><mxCell id="572YSaZIMF3PEAkcxAfT-50" value="Schema Cache" style="shape=datastore;whiteSpace=wrap;html=1;" parent="1" vertex="1"><mxGeometry x="270" y="277.25" width="60" height="60" as="geometry"/></mxCell><mxCell id="572YSaZIMF3PEAkcxAfT-51" style="edgeStyle=orthogonalEdgeStyle;rounded=0;orthogonalLoop=1;jettySize=auto;html=1;" parent="1" source="572YSaZIMF3PEAkcxAfT-52" target="572YSaZIMF3PEAkcxAfT-56" edge="1"><mxGeometry relative="1" as="geometry"/></mxCell><mxCell id="572YSaZIMF3PEAkcxAfT-52" value="All CRUD" style="verticalLabelPosition=bottom;html=1;verticalAlign=top;align=center;strokeColor=none;fillColor=#00BEF2;shape=mxgraph.azure.queue_generic;pointerEvents=1;" parent="1" vertex="1"><mxGeometry x="514" y="39" width="50" height="15" as="geometry"/></mxCell><mxCell id="572YSaZIMF3PEAkcxAfT-53" style="edgeStyle=orthogonalEdgeStyle;rounded=0;orthogonalLoop=1;jettySize=auto;html=1;entryX=0;entryY=0.5;entryDx=0;entryDy=0;" parent="1" source="572YSaZIMF3PEAkcxAfT-54" target="572YSaZIMF3PEAkcxAfT-60" edge="1"><mxGeometry relative="1" as="geometry"/></mxCell><mxCell id="572YSaZIMF3PEAkcxAfT-54" value="Location Updates" style="verticalLabelPosition=bottom;html=1;verticalAlign=top;align=center;strokeColor=none;fillColor=#00BEF2;shape=mxgraph.azure.queue_generic;pointerEvents=1;" parent="1" vertex="1"><mxGeometry x="514" y="732" width="50" height="15" as="geometry"/></mxCell><mxCell id="572YSaZIMF3PEAkcxAfT-55" value="Entity event" style="outlineConnect=0;dashed=0;verticalLabelPosition=bottom;verticalAlign=top;align=center;html=1;shape=mxgraph.aws3.dynamo_db;fillColor=#2E73B8;gradientColor=none;" parent="1" vertex="1"><mxGeometry x="1058" y="2" width="72" height="81" as="geometry"/></mxCell><mxCell id="572YSaZIMF3PEAkcxAfT-56" value="Bytes" style="rounded=1;whiteSpace=wrap;html=1;fillColor=#FFB570;" parent="1" vertex="1"><mxGeometry x="664" y="11" width="370" height="70" as="geometry"/></mxCell><mxCell id="572YSaZIMF3PEAkcxAfT-57" value="All changes" style="rounded=1;whiteSpace=wrap;html=1;" parent="1" vertex="1"><mxGeometry x="692" y="16" width="120" height="60" as="geometry"/></mxCell><mxCell id="572YSaZIMF3PEAkcxAfT-58" value="Key Value Driver" style="rounded=0;whiteSpace=wrap;html=1;" parent="1" vertex="1"><mxGeometry x="904" y="26" width="100" height="40" as="geometry"/></mxCell><mxCell id="572YSaZIMF3PEAkcxAfT-59" value="Location Service" style="sketch=0;points=[[0,0,0],[0.25,0,0],[0.5,0,0],[0.75,0,0],[1,0,0],[0,1,0],[0.25,1,0],[0.5,1,0],[0.75,1,0],[1,1,0],[0,0.25,0],[0,0.5,0],[0,0.75,0],[1,0.25,0],[1,0.5,0],[1,0.75,0]];outlineConnect=0;fontColor=#232F3E;gradientColor=#F54749;gradientDirection=north;fillColor=#C7131F;strokeColor=#ffffff;dashed=0;verticalLabelPosition=bottom;verticalAlign=top;align=center;html=1;fontSize=12;fontStyle=0;aspect=fixed;shape=mxgraph.aws4.resourceIcon;resIcon=mxgraph.aws4.location_service;" parent="1" vertex="1"><mxGeometry x="1064.34" y="712.17" width="54.66" height="54.66" as="geometry"/></mxCell><mxCell id="572YSaZIMF3PEAkcxAfT-60" value="Primitive&lt;br&gt;Translation" style="rounded=1;whiteSpace=wrap;html=1;fillColor=#B9E0A5;" parent="1" vertex="1"><mxGeometry x="664" y="704.5" width="370" height="70" as="geometry"/></mxCell><mxCell id="572YSaZIMF3PEAkcxAfT-61" value="Geolocation Service" style="rounded=1;whiteSpace=wrap;html=1;" parent="1" vertex="1"><mxGeometry x="692" y="709.5" width="120" height="60" as="geometry"/></mxCell><mxCell id="572YSaZIMF3PEAkcxAfT-62" value="Location Driver" style="rounded=0;whiteSpace=wrap;html=1;" parent="1" vertex="1"><mxGeometry x="904" y="714.5" width="100" height="40" as="geometry"/></mxCell><mxCell id="572YSaZIMF3PEAkcxAfT-63" value="Key -&amp;nbsp; timstamp, entity id, predicate id, object id&lt;br&gt;Value - byte array" style="text;html=1;resizable=0;autosize=1;align=center;verticalAlign=middle;points=[];fillColor=none;strokeColor=none;rounded=0;" parent="1" vertex="1"><mxGeometry x="105" y="25.5" width="270" height="30" as="geometry"/></mxCell><mxCell id="572YSaZIMF3PEAkcxAfT-64" style="edgeStyle=orthogonalEdgeStyle;rounded=0;orthogonalLoop=1;jettySize=auto;html=1;" parent="1" source="572YSaZIMF3PEAkcxAfT-65" edge="1"><mxGeometry relative="1" as="geometry"><mxPoint x="120" y="396.5" as="targetPoint"/></mxGeometry></mxCell><mxCell id="572YSaZIMF3PEAkcxAfT-65" value="knowledge_updates" style="verticalLabelPosition=bottom;html=1;verticalAlign=top;align=center;strokeColor=none;fillColor=#00BEF2;shape=mxgraph.azure.queue_generic;pointerEvents=1;" parent="1" vertex="1"><mxGeometry x="30" y="389" width="50" height="15" as="geometry"/></mxCell><mxCell id="572YSaZIMF3PEAkcxAfT-66" value="Translation as Service" style="rounded=1;whiteSpace=wrap;html=1;fillColor=#FFB570;" parent="1" vertex="1"><mxGeometry x="60" y="609.5" width="120" height="60" as="geometry"/></mxCell><mxCell id="572YSaZIMF3PEAkcxAfT-67" value="Validation as Service" style="rounded=1;whiteSpace=wrap;html=1;fillColor=#FFB570;" parent="1" vertex="1"><mxGeometry x="60" y="694.5" width="120" height="60" as="geometry"/></mxCell></root></mxGraphModel></diagram><diagram id="_TT9Acie09xdK4eTe5or" name="repository-query"><mxGraphModel dx="1219" dy="686" grid="1" gridSize="10" guides="1" tooltips="1" connect="1" arrows="1" fold="1" page="1" pageScale="1" pageWidth="1169" pageHeight="827" math="0" shadow="0"><root><mxCell id="0"/><mxCell id="1" parent="0"/><mxCell id="6JWlCjkA0_nGu-3xUSkK-68" value="Primitive&lt;br&gt;Translation" style="rounded=1;whiteSpace=wrap;html=1;" parent="1" vertex="1"><mxGeometry x="664" y="548" width="370" height="70" as="geometry"/></mxCell><mxCell id="6JWlCjkA0_nGu-3xUSkK-69" value="Primitive&lt;br&gt;Translation" style="rounded=1;whiteSpace=wrap;html=1;" parent="1" vertex="1"><mxGeometry x="664" y="448" width="370" height="70" as="geometry"/></mxCell><mxCell id="6JWlCjkA0_nGu-3xUSkK-70" value="Elasticsearch Driver" style="rounded=0;whiteSpace=wrap;html=1;" parent="1" vertex="1"><mxGeometry x="904" y="463" width="100" height="40" as="geometry"/></mxCell><mxCell id="6JWlCjkA0_nGu-3xUSkK-71" value="Primitive&lt;br&gt;Translation" style="rounded=1;whiteSpace=wrap;html=1;" parent="1" vertex="1"><mxGeometry x="664" y="348" width="370" height="70" as="geometry"/></mxCell><mxCell id="6JWlCjkA0_nGu-3xUSkK-72" value="Primitive&lt;br&gt;Translation" style="rounded=1;whiteSpace=wrap;html=1;" parent="1" vertex="1"><mxGeometry x="664" y="253.75" width="370" height="70" as="geometry"/></mxCell><mxCell id="6JWlCjkA0_nGu-3xUSkK-73" value="Primitive&lt;br&gt;Translation" style="rounded=1;whiteSpace=wrap;html=1;" parent="1" vertex="1"><mxGeometry x="664" y="156" width="370" height="70" as="geometry"/></mxCell><mxCell id="6JWlCjkA0_nGu-3xUSkK-74" value="Primitive&lt;br&gt;Translation" style="rounded=1;whiteSpace=wrap;html=1;" parent="1" vertex="1"><mxGeometry x="664" y="58" width="370" height="70" as="geometry"/></mxCell><mxCell id="6JWlCjkA0_nGu-3xUSkK-75" value="Name Service" style="rounded=1;whiteSpace=wrap;html=1;" parent="1" vertex="1"><mxGeometry x="692" y="453" width="120" height="60" as="geometry"/></mxCell><mxCell id="6JWlCjkA0_nGu-3xUSkK-76" value="Attributes Query Executor" style="rounded=1;whiteSpace=wrap;html=1;" parent="1" vertex="1"><mxGeometry x="692" y="353" width="120" height="60" as="geometry"/></mxCell><mxCell id="6JWlCjkA0_nGu-3xUSkK-77" value="Content Query Executor" style="rounded=1;whiteSpace=wrap;html=1;" parent="1" vertex="1"><mxGeometry x="692" y="258" width="120" height="60" as="geometry"/></mxCell><mxCell id="6JWlCjkA0_nGu-3xUSkK-78" value="Timeseries Query Executor" style="rounded=1;whiteSpace=wrap;html=1;" parent="1" vertex="1"><mxGeometry x="692" y="161" width="120" height="60" as="geometry"/></mxCell><mxCell id="6JWlCjkA0_nGu-3xUSkK-79" value="Predicate Query Executor" style="rounded=1;whiteSpace=wrap;html=1;" parent="1" vertex="1"><mxGeometry x="692" y="63" width="120" height="60" as="geometry"/></mxCell><mxCell id="6JWlCjkA0_nGu-3xUSkK-80" value="" style="edgeStyle=orthogonalEdgeStyle;rounded=0;orthogonalLoop=1;jettySize=auto;html=1;entryX=0;entryY=0.5;entryDx=0;entryDy=0;" parent="1" source="6JWlCjkA0_nGu-3xUSkK-87" target="6JWlCjkA0_nGu-3xUSkK-74" edge="1"><mxGeometry relative="1" as="geometry"/></mxCell><mxCell id="6JWlCjkA0_nGu-3xUSkK-81" style="edgeStyle=orthogonalEdgeStyle;rounded=0;orthogonalLoop=1;jettySize=auto;html=1;entryX=0;entryY=0.5;entryDx=0;entryDy=0;" parent="1" source="6JWlCjkA0_nGu-3xUSkK-87" target="6JWlCjkA0_nGu-3xUSkK-73" edge="1"><mxGeometry relative="1" as="geometry"/></mxCell><mxCell id="6JWlCjkA0_nGu-3xUSkK-82" style="edgeStyle=orthogonalEdgeStyle;rounded=0;orthogonalLoop=1;jettySize=auto;html=1;entryX=0;entryY=0.5;entryDx=0;entryDy=0;" parent="1" source="6JWlCjkA0_nGu-3xUSkK-87" target="6JWlCjkA0_nGu-3xUSkK-72" edge="1"><mxGeometry relative="1" as="geometry"/></mxCell><mxCell id="6JWlCjkA0_nGu-3xUSkK-83" style="edgeStyle=orthogonalEdgeStyle;rounded=0;orthogonalLoop=1;jettySize=auto;html=1;entryX=0;entryY=0.5;entryDx=0;entryDy=0;" parent="1" source="6JWlCjkA0_nGu-3xUSkK-87" target="6JWlCjkA0_nGu-3xUSkK-71" edge="1"><mxGeometry relative="1" as="geometry"/></mxCell><mxCell id="6JWlCjkA0_nGu-3xUSkK-84" style="edgeStyle=orthogonalEdgeStyle;rounded=0;orthogonalLoop=1;jettySize=auto;html=1;entryX=0;entryY=0.5;entryDx=0;entryDy=0;" parent="1" source="6JWlCjkA0_nGu-3xUSkK-87" target="6JWlCjkA0_nGu-3xUSkK-69" edge="1"><mxGeometry relative="1" as="geometry"/></mxCell><mxCell id="6JWlCjkA0_nGu-3xUSkK-85" style="edgeStyle=orthogonalEdgeStyle;rounded=0;orthogonalLoop=1;jettySize=auto;html=1;entryX=0;entryY=0.5;entryDx=0;entryDy=0;" parent="1" source="6JWlCjkA0_nGu-3xUSkK-87" target="6JWlCjkA0_nGu-3xUSkK-68" edge="1"><mxGeometry relative="1" as="geometry"/></mxCell><mxCell id="6JWlCjkA0_nGu-3xUSkK-86" value="GRPC" style="edgeLabel;html=1;align=center;verticalAlign=middle;resizable=0;points=[];" parent="6JWlCjkA0_nGu-3xUSkK-85" connectable="0" vertex="1"><mxGeometry x="-0.6884" y="-3" relative="1" as="geometry"><mxPoint as="offset"/></mxGeometry></mxCell><mxCell id="6JWlCjkA0_nGu-3xUSkK-87" value="Query Resolver" style="rounded=1;whiteSpace=wrap;html=1;" parent="1" vertex="1"><mxGeometry x="253" y="251.75" width="200" height="175" as="geometry"/></mxCell><mxCell id="6JWlCjkA0_nGu-3xUSkK-88" value="Arango DB" style="aspect=fixed;html=1;points=[];align=center;image;fontSize=12;image=img/lib/azure2/management_governance/Resource_Graph_Explorer.svg;" parent="1" vertex="1"><mxGeometry x="1069.92" y="65" width="48.16" height="46" as="geometry"/></mxCell><mxCell id="6JWlCjkA0_nGu-3xUSkK-89" value="Influx" style="sketch=0;points=[[0,0,0],[0.25,0,0],[0.5,0,0],[0.75,0,0],[1,0,0],[0,1,0],[0.25,1,0],[0.5,1,0],[0.75,1,0],[1,1,0],[0,0.25,0],[0,0.5,0],[0,0.75,0],[1,0.25,0],[1,0.5,0],[1,0.75,0]];outlineConnect=0;fontColor=#232F3E;gradientColor=#4D72F3;gradientDirection=north;fillColor=#3334B9;strokeColor=#ffffff;dashed=0;verticalLabelPosition=bottom;verticalAlign=top;align=center;html=1;fontSize=12;fontStyle=0;aspect=fixed;shape=mxgraph.aws4.resourceIcon;resIcon=mxgraph.aws4.timestream;" parent="1" vertex="1"><mxGeometry x="1067.5" y="166" width="50" height="50" as="geometry"/></mxCell><mxCell id="6JWlCjkA0_nGu-3xUSkK-90" value="Azure Blob Store" style="sketch=0;points=[[0,0,0],[0.25,0,0],[0.5,0,0],[0.75,0,0],[1,0,0],[0,1,0],[0.25,1,0],[0.5,1,0],[0.75,1,0],[1,1,0],[0,0.25,0],[0,0.5,0],[0,0.75,0],[1,0.25,0],[1,0.5,0],[1,0.75,0]];outlineConnect=0;fontColor=#232F3E;gradientColor=#60A337;gradientDirection=north;fillColor=#277116;strokeColor=#ffffff;dashed=0;verticalLabelPosition=bottom;verticalAlign=top;align=center;html=1;fontSize=12;fontStyle=0;aspect=fixed;shape=mxgraph.aws4.resourceIcon;resIcon=mxgraph.aws4.s3;" parent="1" vertex="1"><mxGeometry x="1066" y="260.5" width="53" height="53" as="geometry"/></mxCell><mxCell id="6JWlCjkA0_nGu-3xUSkK-91" value="Mongo DB" style="sketch=0;points=[[0,0,0],[0.25,0,0],[0.5,0,0],[0.75,0,0],[1,0,0],[0,1,0],[0.25,1,0],[0.5,1,0],[0.75,1,0],[1,1,0],[0,0.25,0],[0,0.5,0],[0,0.75,0],[1,0.25,0],[1,0.5,0],[1,0.75,0]];outlineConnect=0;fontColor=#232F3E;gradientColor=#4D72F3;gradientDirection=north;fillColor=#3334B9;strokeColor=#ffffff;dashed=0;verticalLabelPosition=bottom;verticalAlign=top;align=center;html=1;fontSize=12;fontStyle=0;aspect=fixed;shape=mxgraph.aws4.resourceIcon;resIcon=mxgraph.aws4.documentdb_with_mongodb_compatibility;" parent="1" vertex="1"><mxGeometry x="1067.5" y="354" width="49" height="49" as="geometry"/></mxCell><mxCell id="6JWlCjkA0_nGu-3xUSkK-92" value="Elasticsearch" style="sketch=0;points=[[0,0,0],[0.25,0,0],[0.5,0,0],[0.75,0,0],[1,0,0],[0,1,0],[0.25,1,0],[0.5,1,0],[0.75,1,0],[1,1,0],[0,0.25,0],[0,0.5,0],[0,0.75,0],[1,0.25,0],[1,0.5,0],[1,0.75,0]];outlineConnect=0;fontColor=#232F3E;gradientColor=#945DF2;gradientDirection=north;fillColor=#5A30B5;strokeColor=#ffffff;dashed=0;verticalLabelPosition=bottom;verticalAlign=top;align=center;html=1;fontSize=12;fontStyle=0;aspect=fixed;shape=mxgraph.aws4.resourceIcon;resIcon=mxgraph.aws4.elasticsearch_service;" parent="1" vertex="1"><mxGeometry x="1065.6599999999999" y="458" width="50" height="50" as="geometry"/></mxCell><mxCell id="6JWlCjkA0_nGu-3xUSkK-93" value="Validation Service" style="rounded=1;whiteSpace=wrap;html=1;" parent="1" vertex="1"><mxGeometry x="177" y="309.25" width="120" height="60" as="geometry"/></mxCell><mxCell id="6JWlCjkA0_nGu-3xUSkK-94" value="Arango Driver" style="rounded=0;whiteSpace=wrap;html=1;" parent="1" vertex="1"><mxGeometry x="904" y="73" width="100" height="40" as="geometry"/></mxCell><mxCell id="6JWlCjkA0_nGu-3xUSkK-95" value="Influx Driver" style="rounded=0;whiteSpace=wrap;html=1;" parent="1" vertex="1"><mxGeometry x="904" y="171" width="100" height="40" as="geometry"/></mxCell><mxCell id="6JWlCjkA0_nGu-3xUSkK-96" value="Azure Driver" style="rounded=0;whiteSpace=wrap;html=1;" parent="1" vertex="1"><mxGeometry x="904" y="268.75" width="100" height="40" as="geometry"/></mxCell><mxCell id="6JWlCjkA0_nGu-3xUSkK-97" value="Mongo Driver" style="rounded=0;whiteSpace=wrap;html=1;" parent="1" vertex="1"><mxGeometry x="904" y="363" width="100" height="40" as="geometry"/></mxCell><mxCell id="6JWlCjkA0_nGu-3xUSkK-98" value="Id Service" style="rounded=1;whiteSpace=wrap;html=1;" parent="1" vertex="1"><mxGeometry x="692" y="553" width="120" height="60" as="geometry"/></mxCell><mxCell id="6JWlCjkA0_nGu-3xUSkK-99" value="Mongo DB" style="sketch=0;points=[[0,0,0],[0.25,0,0],[0.5,0,0],[0.75,0,0],[1,0,0],[0,1,0],[0.25,1,0],[0.5,1,0],[0.75,1,0],[1,1,0],[0,0.25,0],[0,0.5,0],[0,0.75,0],[1,0.25,0],[1,0.5,0],[1,0.75,0]];outlineConnect=0;fontColor=#232F3E;gradientColor=#4D72F3;gradientDirection=north;fillColor=#3334B9;strokeColor=#ffffff;dashed=0;verticalLabelPosition=bottom;verticalAlign=top;align=center;html=1;fontSize=12;fontStyle=0;aspect=fixed;shape=mxgraph.aws4.resourceIcon;resIcon=mxgraph.aws4.documentdb_with_mongodb_compatibility;" parent="1" vertex="1"><mxGeometry x="1065.6599999999999" y="553.5" width="49" height="49" as="geometry"/></mxCell><mxCell id="6JWlCjkA0_nGu-3xUSkK-100" value="Mongo Driver" style="rounded=0;whiteSpace=wrap;html=1;" parent="1" vertex="1"><mxGeometry x="904" y="558" width="100" height="40" as="geometry"/></mxCell><mxCell id="6JWlCjkA0_nGu-3xUSkK-101" value="" style="shape=flexArrow;endArrow=classic;html=1;rounded=0;" parent="1" edge="1"><mxGeometry width="50" height="50" relative="1" as="geometry"><mxPoint x="80" y="338.75" as="sourcePoint"/><mxPoint x="170" y="338.75" as="targetPoint"/></mxGeometry></mxCell><mxCell id="6JWlCjkA0_nGu-3xUSkK-102" value="Reader" style="shape=umlActor;verticalLabelPosition=bottom;verticalAlign=top;html=1;outlineConnect=0;" parent="1" vertex="1"><mxGeometry x="30" y="303" width="30" height="60" as="geometry"/></mxCell><mxCell id="6JWlCjkA0_nGu-3xUSkK-103" value="Schema Cache" style="shape=datastore;whiteSpace=wrap;html=1;" parent="1" vertex="1"><mxGeometry x="323" y="211" width="60" height="60" as="geometry"/></mxCell></root></mxGraphModel></diagram><diagram id="9f_u7CXiExM51V6zg4QJ" name="classifier-function"><mxGraphModel dx="2145" dy="718" grid="1" gridSize="10" guides="1" tooltips="1" connect="1" arrows="1" fold="1" page="1" pageScale="1" pageWidth="1169" pageHeight="827" math="0" shadow="0"><root><mxCell id="0"/><mxCell id="1" parent="0"/><mxCell id="ybu7T-bFNIdUDpRimL1F-6" value="" style="rounded=0;whiteSpace=wrap;html=1;" vertex="1" parent="1"><mxGeometry x="81" y="414" width="339" height="256" as="geometry"/></mxCell><mxCell id="Oyre34lDaBirwkcrEMQL-16" value="" style="rounded=0;whiteSpace=wrap;html=1;fillColor=#FFFFFF;" parent="1" vertex="1"><mxGeometry x="41" y="41" width="650" height="280" as="geometry"/></mxCell><mxCell id="Oyre34lDaBirwkcrEMQL-3" style="edgeStyle=orthogonalEdgeStyle;rounded=0;orthogonalLoop=1;jettySize=auto;html=1;" parent="1" source="Oyre34lDaBirwkcrEMQL-4" target="Oyre34lDaBirwkcrEMQL-6" edge="1"><mxGeometry relative="1" as="geometry"/></mxCell><mxCell id="Oyre34lDaBirwkcrEMQL-4" value="Brain Event &lt;br&gt;with Image" style="verticalLabelPosition=bottom;html=1;verticalAlign=top;align=center;strokeColor=none;fillColor=#00BEF2;shape=mxgraph.azure.queue_generic;pointerEvents=1;" parent="1" vertex="1"><mxGeometry x="81" y="162.5" width="50" height="15" as="geometry"/></mxCell><mxCell id="Oyre34lDaBirwkcrEMQL-5" style="edgeStyle=orthogonalEdgeStyle;rounded=0;orthogonalLoop=1;jettySize=auto;html=1;entryX=0;entryY=0.5;entryDx=0;entryDy=0;entryPerimeter=0;" parent="1" source="Oyre34lDaBirwkcrEMQL-6" target="Oyre34lDaBirwkcrEMQL-7" edge="1"><mxGeometry relative="1" as="geometry"/></mxCell><mxCell id="Oyre34lDaBirwkcrEMQL-6" value="AIX Classifier Bridge" style="sketch=0;points=[[0,0,0],[0.25,0,0],[0.5,0,0],[0.75,0,0],[1,0,0],[0,1,0],[0.25,1,0],[0.5,1,0],[0.75,1,0],[1,1,0],[0,0.25,0],[0,0.5,0],[0,0.75,0],[1,0.25,0],[1,0.5,0],[1,0.75,0]];outlineConnect=0;fontColor=#232F3E;gradientColor=#4AB29A;gradientDirection=north;fillColor=#116D5B;strokeColor=#ffffff;dashed=0;verticalLabelPosition=bottom;verticalAlign=top;align=center;html=1;fontSize=12;fontStyle=0;aspect=fixed;shape=mxgraph.aws4.resourceIcon;resIcon=mxgraph.aws4.codeguru_2;" parent="1" vertex="1"><mxGeometry x="167" y="131" width="78" height="78" as="geometry"/></mxCell><mxCell id="Oyre34lDaBirwkcrEMQL-9" style="edgeStyle=orthogonalEdgeStyle;rounded=0;orthogonalLoop=1;jettySize=auto;html=1;entryX=0;entryY=0.5;entryDx=0;entryDy=0;" parent="1" source="Oyre34lDaBirwkcrEMQL-7" target="Oyre34lDaBirwkcrEMQL-8" edge="1"><mxGeometry relative="1" as="geometry"/></mxCell><mxCell id="Oyre34lDaBirwkcrEMQL-7" value="Extracted Classes +&lt;br&gt;Brain event Image" style="verticalLabelPosition=bottom;html=1;verticalAlign=top;align=center;strokeColor=none;fillColor=#00BEF2;shape=mxgraph.azure.queue_generic;pointerEvents=1;" parent="1" vertex="1"><mxGeometry x="295" y="162.5" width="50" height="15" as="geometry"/></mxCell><mxCell id="Oyre34lDaBirwkcrEMQL-13" style="edgeStyle=orthogonalEdgeStyle;rounded=0;orthogonalLoop=1;jettySize=auto;html=1;entryX=0;entryY=0.5;entryDx=0;entryDy=0;entryPerimeter=0;" parent="1" source="Oyre34lDaBirwkcrEMQL-8" target="Oyre34lDaBirwkcrEMQL-10" edge="1"><mxGeometry relative="1" as="geometry"/></mxCell><mxCell id="Oyre34lDaBirwkcrEMQL-14" style="edgeStyle=orthogonalEdgeStyle;rounded=0;orthogonalLoop=1;jettySize=auto;html=1;entryX=0;entryY=0.5;entryDx=0;entryDy=0;entryPerimeter=0;" parent="1" source="Oyre34lDaBirwkcrEMQL-8" target="Oyre34lDaBirwkcrEMQL-11" edge="1"><mxGeometry relative="1" as="geometry"/></mxCell><mxCell id="Oyre34lDaBirwkcrEMQL-15" style="edgeStyle=orthogonalEdgeStyle;rounded=0;orthogonalLoop=1;jettySize=auto;html=1;entryX=0;entryY=0.5;entryDx=0;entryDy=0;entryPerimeter=0;" parent="1" source="Oyre34lDaBirwkcrEMQL-8" target="Oyre34lDaBirwkcrEMQL-12" edge="1"><mxGeometry relative="1" as="geometry"/></mxCell><mxCell id="Oyre34lDaBirwkcrEMQL-8" value="Brain OS Filter" style="rounded=1;whiteSpace=wrap;html=1;fillColor=#CDA2BE;" parent="1" vertex="1"><mxGeometry x="406.5" y="140" width="120" height="60" as="geometry"/></mxCell><mxCell id="Oyre34lDaBirwkcrEMQL-10" value="Class A" style="verticalLabelPosition=bottom;html=1;verticalAlign=top;align=center;strokeColor=none;fillColor=#00BEF2;shape=mxgraph.azure.queue_generic;pointerEvents=1;" parent="1" vertex="1"><mxGeometry x="601" y="91" width="50" height="15" as="geometry"/></mxCell><mxCell id="Oyre34lDaBirwkcrEMQL-11" value="Class B" style="verticalLabelPosition=bottom;html=1;verticalAlign=top;align=center;strokeColor=none;fillColor=#00BEF2;shape=mxgraph.azure.queue_generic;pointerEvents=1;" parent="1" vertex="1"><mxGeometry x="601" y="162.5" width="50" height="15" as="geometry"/></mxCell><mxCell id="Oyre34lDaBirwkcrEMQL-12" value="Class C" style="verticalLabelPosition=bottom;html=1;verticalAlign=top;align=center;strokeColor=none;fillColor=#00BEF2;shape=mxgraph.azure.queue_generic;pointerEvents=1;" parent="1" vertex="1"><mxGeometry x="601" y="241" width="50" height="15" as="geometry"/></mxCell><mxCell id="Oyre34lDaBirwkcrEMQL-17" value="Classifier Function" style="text;strokeColor=none;fillColor=none;html=1;fontSize=24;fontStyle=1;verticalAlign=middle;align=center;" parent="1" vertex="1"><mxGeometry x="316" y="270" width="100" height="40" as="geometry"/></mxCell><mxCell id="Oyre34lDaBirwkcrEMQL-23" style="edgeStyle=orthogonalEdgeStyle;rounded=0;orthogonalLoop=1;jettySize=auto;html=1;entryX=0;entryY=0.5;entryDx=0;entryDy=0;" parent="1" source="Oyre34lDaBirwkcrEMQL-18" target="Oyre34lDaBirwkcrEMQL-21" edge="1"><mxGeometry relative="1" as="geometry"/></mxCell><mxCell id="Oyre34lDaBirwkcrEMQL-24" style="edgeStyle=orthogonalEdgeStyle;rounded=0;orthogonalLoop=1;jettySize=auto;html=1;entryX=0;entryY=0.5;entryDx=0;entryDy=0;" parent="1" source="Oyre34lDaBirwkcrEMQL-18" target="Oyre34lDaBirwkcrEMQL-20" edge="1"><mxGeometry relative="1" as="geometry"/></mxCell><mxCell id="Oyre34lDaBirwkcrEMQL-25" style="edgeStyle=orthogonalEdgeStyle;rounded=0;orthogonalLoop=1;jettySize=auto;html=1;entryX=0;entryY=0.5;entryDx=0;entryDy=0;" parent="1" source="Oyre34lDaBirwkcrEMQL-18" target="Oyre34lDaBirwkcrEMQL-22" edge="1"><mxGeometry relative="1" as="geometry"/></mxCell><mxCell id="Oyre34lDaBirwkcrEMQL-18" value="Crop Classifier Function" style="rounded=1;whiteSpace=wrap;html=1;strokeWidth=2;fillWeight=4;hachureGap=8;hachureAngle=45;fillColor=#1ba1e2;sketch=1;" parent="1" vertex="1"><mxGeometry x="280" y="520" width="120" height="60" as="geometry"/></mxCell><mxCell id="Oyre34lDaBirwkcrEMQL-20" value="DDPH&amp;nbsp;Classifier Function" style="rounded=1;whiteSpace=wrap;html=1;strokeWidth=2;fillWeight=4;hachureGap=8;hachureAngle=45;fillColor=#CDA2BE;sketch=1;" parent="1" vertex="1"><mxGeometry x="496.5" y="390" width="120" height="60" as="geometry"/></mxCell><mxCell id="Oyre34lDaBirwkcrEMQL-29" style="edgeStyle=orthogonalEdgeStyle;rounded=0;orthogonalLoop=1;jettySize=auto;html=1;entryX=0;entryY=0.5;entryDx=0;entryDy=0;" parent="1" source="Oyre34lDaBirwkcrEMQL-21" target="Oyre34lDaBirwkcrEMQL-27" edge="1"><mxGeometry relative="1" as="geometry"/></mxCell><mxCell id="Oyre34lDaBirwkcrEMQL-30" style="edgeStyle=orthogonalEdgeStyle;rounded=0;orthogonalLoop=1;jettySize=auto;html=1;entryX=0;entryY=0.5;entryDx=0;entryDy=0;" parent="1" source="Oyre34lDaBirwkcrEMQL-21" target="Oyre34lDaBirwkcrEMQL-28" edge="1"><mxGeometry relative="1" as="geometry"/></mxCell><mxCell id="Oyre34lDaBirwkcrEMQL-31" style="edgeStyle=orthogonalEdgeStyle;rounded=0;orthogonalLoop=1;jettySize=auto;html=1;entryX=0;entryY=0.5;entryDx=0;entryDy=0;" parent="1" source="Oyre34lDaBirwkcrEMQL-21" target="Oyre34lDaBirwkcrEMQL-26" edge="1"><mxGeometry relative="1" as="geometry"/></mxCell><mxCell id="Oyre34lDaBirwkcrEMQL-21" value="DDPH&amp;nbsp;Classifier Function" style="rounded=1;whiteSpace=wrap;html=1;strokeWidth=2;fillWeight=4;hachureGap=8;hachureAngle=45;fillColor=#CDA2BE;sketch=1;" parent="1" vertex="1"><mxGeometry x="496.5" y="520" width="120" height="60" as="geometry"/></mxCell><mxCell id="Oyre34lDaBirwkcrEMQL-22" value="DDPH&amp;nbsp;Classifier Function" style="rounded=1;whiteSpace=wrap;html=1;strokeWidth=2;fillWeight=4;hachureGap=8;hachureAngle=45;fillColor=#CDA2BE;sketch=1;" parent="1" vertex="1"><mxGeometry x="496.5" y="650" width="120" height="60" as="geometry"/></mxCell><mxCell id="DvEJPg-5XUvG41SeNwvB-9" style="edgeStyle=orthogonalEdgeStyle;rounded=0;orthogonalLoop=1;jettySize=auto;html=1;" parent="1" source="Oyre34lDaBirwkcrEMQL-26" target="DvEJPg-5XUvG41SeNwvB-8" edge="1"><mxGeometry relative="1" as="geometry"/></mxCell><mxCell id="Oyre34lDaBirwkcrEMQL-26" value="Pest&amp;nbsp;Classifier Function" style="rounded=1;whiteSpace=wrap;html=1;strokeWidth=2;fillWeight=4;hachureGap=8;hachureAngle=45;fillColor=#B9E0A5;sketch=1;" parent="1" vertex="1"><mxGeometry x="710" y="520" width="120" height="60" as="geometry"/></mxCell><mxCell id="DvEJPg-5XUvG41SeNwvB-11" style="edgeStyle=orthogonalEdgeStyle;rounded=0;orthogonalLoop=1;jettySize=auto;html=1;entryX=0.5;entryY=0;entryDx=0;entryDy=0;entryPerimeter=0;" parent="1" source="Oyre34lDaBirwkcrEMQL-27" target="DvEJPg-5XUvG41SeNwvB-8" edge="1"><mxGeometry relative="1" as="geometry"/></mxCell><mxCell id="Oyre34lDaBirwkcrEMQL-27" value="Diseases Classifier Function" style="rounded=1;whiteSpace=wrap;html=1;strokeWidth=2;fillWeight=4;hachureGap=8;hachureAngle=45;fillColor=#B9E0A5;sketch=1;" parent="1" vertex="1"><mxGeometry x="710" y="420" width="120" height="60" as="geometry"/></mxCell><mxCell id="DvEJPg-5XUvG41SeNwvB-12" style="edgeStyle=orthogonalEdgeStyle;rounded=0;orthogonalLoop=1;jettySize=auto;html=1;" parent="1" source="Oyre34lDaBirwkcrEMQL-28" target="DvEJPg-5XUvG41SeNwvB-8" edge="1"><mxGeometry relative="1" as="geometry"/></mxCell><mxCell id="Oyre34lDaBirwkcrEMQL-28" value="Deficiency&amp;nbsp;Classifier Function" style="rounded=1;whiteSpace=wrap;html=1;strokeWidth=2;fillWeight=4;hachureGap=8;hachureAngle=45;fillColor=#B9E0A5;sketch=1;" parent="1" vertex="1"><mxGeometry x="710" y="620" width="120" height="60" as="geometry"/></mxCell><mxCell id="DvEJPg-5XUvG41SeNwvB-1" value="Action Executor" style="rounded=1;whiteSpace=wrap;html=1;fillColor=#A9C4EB;" parent="1" vertex="1"><mxGeometry x="1004" y="520" width="120" height="60" as="geometry"/></mxCell><mxCell id="DvEJPg-5XUvG41SeNwvB-5" value="Classifier function is new construct in &lt;br&gt;Brain OS with following components" style="text;html=1;resizable=0;autosize=1;align=center;verticalAlign=middle;points=[];fillColor=none;strokeColor=none;rounded=0;" parent="1" vertex="1"><mxGeometry x="725" y="86" width="210" height="30" as="geometry"/></mxCell><mxCell id="DvEJPg-5XUvG41SeNwvB-6" value="&lt;ol&gt;&lt;li&gt;AIX Function&lt;/li&gt;&lt;li&gt;Brain OS Filter&lt;/li&gt;&lt;li&gt;Topic for each class&lt;/li&gt;&lt;/ol&gt;" style="text;strokeColor=none;fillColor=none;html=1;whiteSpace=wrap;verticalAlign=middle;overflow=hidden;" parent="1" vertex="1"><mxGeometry x="700" y="110" width="160" height="80" as="geometry"/></mxCell><mxCell id="DvEJPg-5XUvG41SeNwvB-7" value="Agriculture DAG" style="text;strokeColor=none;fillColor=none;html=1;fontSize=24;fontStyle=1;verticalAlign=middle;align=center;" parent="1" vertex="1"><mxGeometry x="610" y="750" width="100" height="40" as="geometry"/></mxCell><mxCell id="DvEJPg-5XUvG41SeNwvB-13" style="edgeStyle=orthogonalEdgeStyle;rounded=0;orthogonalLoop=1;jettySize=auto;html=1;entryX=0;entryY=0.5;entryDx=0;entryDy=0;" parent="1" source="DvEJPg-5XUvG41SeNwvB-8" target="DvEJPg-5XUvG41SeNwvB-1" edge="1"><mxGeometry relative="1" as="geometry"/></mxCell><mxCell id="KxP4vmLkgJhpQQGjVqos-2" style="edgeStyle=orthogonalEdgeStyle;rounded=0;orthogonalLoop=1;jettySize=auto;html=1;entryX=0;entryY=0.5;entryDx=0;entryDy=0;" parent="1" source="DvEJPg-5XUvG41SeNwvB-8" target="KxP4vmLkgJhpQQGjVqos-1" edge="1"><mxGeometry relative="1" as="geometry"/></mxCell><mxCell id="DvEJPg-5XUvG41SeNwvB-8" value="Class C" style="verticalLabelPosition=bottom;html=1;verticalAlign=top;align=center;strokeColor=none;fillColor=#00BEF2;shape=mxgraph.azure.queue_generic;pointerEvents=1;" parent="1" vertex="1"><mxGeometry x="890" y="542.5" width="50" height="15" as="geometry"/></mxCell><mxCell id="DvEJPg-5XUvG41SeNwvB-10" value="It will have all the above config.It can output messages &lt;br&gt;to single or multiple topics" style="text;html=1;resizable=0;autosize=1;align=center;verticalAlign=middle;points=[];fillColor=none;strokeColor=none;rounded=0;" parent="1" vertex="1"><mxGeometry x="720" y="200" width="310" height="30" as="geometry"/></mxCell><mxCell id="_mg9pDXoBCBiDEWNMBpv-1" value="Azure Content Ingestion" style="aspect=fixed;perimeter=ellipsePerimeter;html=1;align=center;shadow=0;dashed=0;spacingTop=3;image;image=img/lib/active_directory/database_server.svg;" parent="1" vertex="1"><mxGeometry x="-200" y="510" width="65.6" height="80" as="geometry"/></mxCell><mxCell id="KxP4vmLkgJhpQQGjVqos-1" value="Feature Lake" style="ellipse;whiteSpace=wrap;html=1;aspect=fixed;fillColor=#B9E0A5;" parent="1" vertex="1"><mxGeometry x="1030" y="660" width="80" height="80" as="geometry"/></mxCell><mxCell id="ybu7T-bFNIdUDpRimL1F-3" style="edgeStyle=orthogonalEdgeStyle;rounded=0;orthogonalLoop=1;jettySize=auto;html=1;entryX=0;entryY=0.5;entryDx=0;entryDy=0;" edge="1" parent="1" source="ybu7T-bFNIdUDpRimL1F-1" target="ybu7T-bFNIdUDpRimL1F-2"><mxGeometry relative="1" as="geometry"/></mxCell><mxCell id="ybu7T-bFNIdUDpRimL1F-1" value="Router" style="rounded=1;whiteSpace=wrap;html=1;" vertex="1" parent="1"><mxGeometry x="-90" y="520" width="120" height="60" as="geometry"/></mxCell><mxCell id="ybu7T-bFNIdUDpRimL1F-4" style="edgeStyle=orthogonalEdgeStyle;rounded=0;orthogonalLoop=1;jettySize=auto;html=1;entryX=0;entryY=0.5;entryDx=0;entryDy=0;" edge="1" parent="1" source="ybu7T-bFNIdUDpRimL1F-2" target="Oyre34lDaBirwkcrEMQL-18"><mxGeometry relative="1" as="geometry"/></mxCell><mxCell id="ybu7T-bFNIdUDpRimL1F-2" value="Pre Processor" style="rounded=1;whiteSpace=wrap;html=1;" vertex="1" parent="1"><mxGeometry x="100" y="520" width="120" height="60" as="geometry"/></mxCell></root></mxGraphModel></diagram><diagram id="YTXBzm6h7x4hu-g8dC76" name="AIX Bridge"><mxGraphModel dx="1219" dy="686" grid="1" gridSize="10" guides="1" tooltips="1" connect="1" arrows="1" fold="1" page="1" pageScale="1" pageWidth="1169" pageHeight="827" math="0" shadow="0"><root><mxCell id="0"/><mxCell id="1" parent="0"/><mxCell id="Ow_xmdxIVQ6SvamWKJbO-1" value="AIX Service" style="whiteSpace=wrap;html=1;aspect=fixed;fillColor=#B9E0A5;" parent="1" vertex="1"><mxGeometry x="420" y="70" width="230" height="230" as="geometry"/></mxCell><mxCell id="QEds6OX7Na2SQoVikv6l-10" style="edgeStyle=orthogonalEdgeStyle;rounded=0;orthogonalLoop=1;jettySize=auto;html=1;" parent="1" source="Ow_xmdxIVQ6SvamWKJbO-2" target="QEds6OX7Na2SQoVikv6l-2" edge="1"><mxGeometry relative="1" as="geometry"/></mxCell><mxCell id="Ow_xmdxIVQ6SvamWKJbO-2" value="AIX Bridge" style="rounded=1;whiteSpace=wrap;html=1;fillColor=#ffe6cc;strokeColor=#d79b00;" parent="1" vertex="1"><mxGeometry x="260" y="414" width="530" height="126" as="geometry"/></mxCell><mxCell id="FasGXhnOPNK72S7xs-gk-1" value="Model" style="sketch=0;aspect=fixed;html=1;points=[];align=center;image;fontSize=12;image=img/lib/mscae/Batch_AI.svg;" parent="1" vertex="1"><mxGeometry x="517" y="80" width="36" height="50" as="geometry"/></mxCell><mxCell id="FasGXhnOPNK72S7xs-gk-3" style="edgeStyle=orthogonalEdgeStyle;rounded=0;orthogonalLoop=1;jettySize=auto;html=1;entryX=0.609;entryY=0.13;entryDx=0;entryDy=0;entryPerimeter=0;" parent="1" source="FasGXhnOPNK72S7xs-gk-2" target="Ow_xmdxIVQ6SvamWKJbO-1" edge="1"><mxGeometry relative="1" as="geometry"/></mxCell><mxCell id="FasGXhnOPNK72S7xs-gk-2" value="Model Repository" style="shape=cylinder3;whiteSpace=wrap;html=1;boundedLbl=1;backgroundOutline=1;size=15;fillColor=#dae8fc;strokeColor=#6c8ebf;" parent="1" vertex="1"><mxGeometry x="810" y="60" width="60" height="80" as="geometry"/></mxCell><mxCell id="QEds6OX7Na2SQoVikv6l-6" style="edgeStyle=orthogonalEdgeStyle;rounded=0;orthogonalLoop=1;jettySize=auto;html=1;entryX=0;entryY=0.5;entryDx=0;entryDy=0;" parent="1" source="QEds6OX7Na2SQoVikv6l-1" target="Ow_xmdxIVQ6SvamWKJbO-2" edge="1"><mxGeometry relative="1" as="geometry"/></mxCell><mxCell id="QEds6OX7Na2SQoVikv6l-1" value="BrainOS Event with Feature" style="verticalLabelPosition=bottom;html=1;verticalAlign=top;align=center;strokeColor=none;fillColor=#00BEF2;shape=mxgraph.azure.queue_generic;pointerEvents=1;" parent="1" vertex="1"><mxGeometry x="140.00000000000006" y="469.5" width="50" height="15" as="geometry"/></mxCell><mxCell id="QEds6OX7Na2SQoVikv6l-2" value="BrainOS Event with Feature" style="verticalLabelPosition=bottom;html=1;verticalAlign=top;align=center;strokeColor=none;fillColor=#00BEF2;shape=mxgraph.azure.queue_generic;pointerEvents=1;" parent="1" vertex="1"><mxGeometry x="870" y="469.5" width="50" height="15" as="geometry"/></mxCell><mxCell id="QEds6OX7Na2SQoVikv6l-8" value="BrainQuantity to Primitive Translation" style="ellipse;whiteSpace=wrap;html=1;fillColor=#f8cecc;strokeColor=#b85450;" parent="1" vertex="1"><mxGeometry x="310" y="437" width="120" height="80" as="geometry"/></mxCell><mxCell id="QEds6OX7Na2SQoVikv6l-9" value="Primitive Translation to BrainQuantity" style="ellipse;whiteSpace=wrap;html=1;fillColor=#f8cecc;strokeColor=#b85450;" parent="1" vertex="1"><mxGeometry x="620" y="437" width="120" height="80" as="geometry"/></mxCell><mxCell id="QEds6OX7Na2SQoVikv6l-11" value="" style="shape=flexArrow;endArrow=classic;startArrow=classic;html=1;rounded=0;" parent="1" edge="1"><mxGeometry width="100" height="100" relative="1" as="geometry"><mxPoint x="530" y="410" as="sourcePoint"/><mxPoint x="530" y="310" as="targetPoint"/></mxGeometry></mxCell><mxCell id="QEds6OX7Na2SQoVikv6l-13" value="GRPC" style="edgeLabel;html=1;align=center;verticalAlign=middle;resizable=0;points=[];" parent="QEds6OX7Na2SQoVikv6l-11" vertex="1" connectable="0"><mxGeometry x="0.14" relative="1" as="geometry"><mxPoint as="offset"/></mxGeometry></mxCell></root></mxGraphModel></diagram><diagram name="Rule Engine Bridge" id="wTOI3C36cThIg9jYG1_i"><mxGraphModel dx="976" dy="718" grid="1" gridSize="10" guides="1" tooltips="1" connect="1" arrows="1" fold="1" page="1" pageScale="1" pageWidth="1169" pageHeight="827" math="0" shadow="0"><root><mxCell id="ho9R_ZkuVcgCbn3arzky-0"/><mxCell id="ho9R_ZkuVcgCbn3arzky-1" parent="ho9R_ZkuVcgCbn3arzky-0"/><mxCell id="ho9R_ZkuVcgCbn3arzky-2" value="Rule Engine Service" style="whiteSpace=wrap;html=1;aspect=fixed;fillColor=#B9E0A5;" parent="ho9R_ZkuVcgCbn3arzky-1" vertex="1"><mxGeometry x="420" y="70" width="230" height="230" as="geometry"/></mxCell><mxCell id="ho9R_ZkuVcgCbn3arzky-3" style="edgeStyle=orthogonalEdgeStyle;rounded=0;orthogonalLoop=1;jettySize=auto;html=1;" parent="ho9R_ZkuVcgCbn3arzky-1" source="ho9R_ZkuVcgCbn3arzky-4" target="ho9R_ZkuVcgCbn3arzky-10" edge="1"><mxGeometry relative="1" as="geometry"/></mxCell><mxCell id="ho9R_ZkuVcgCbn3arzky-4" value="Rule Bridge" style="rounded=1;whiteSpace=wrap;html=1;fillColor=#ffe6cc;strokeColor=#d79b00;" parent="ho9R_ZkuVcgCbn3arzky-1" vertex="1"><mxGeometry x="260" y="414" width="530" height="126" as="geometry"/></mxCell><mxCell id="ho9R_ZkuVcgCbn3arzky-15" style="edgeStyle=orthogonalEdgeStyle;rounded=0;orthogonalLoop=1;jettySize=auto;html=1;entryX=1;entryY=0.5;entryDx=0;entryDy=0;" parent="ho9R_ZkuVcgCbn3arzky-1" source="ho9R_ZkuVcgCbn3arzky-7" target="ho9R_ZkuVcgCbn3arzky-2" edge="1"><mxGeometry relative="1" as="geometry"/></mxCell><mxCell id="ho9R_ZkuVcgCbn3arzky-7" value="Elastic search" style="shape=cylinder3;whiteSpace=wrap;html=1;boundedLbl=1;backgroundOutline=1;size=15;fillColor=#dae8fc;strokeColor=#6c8ebf;" parent="ho9R_ZkuVcgCbn3arzky-1" vertex="1"><mxGeometry x="721" y="145" width="60" height="80" as="geometry"/></mxCell><mxCell id="ho9R_ZkuVcgCbn3arzky-8" style="edgeStyle=orthogonalEdgeStyle;rounded=0;orthogonalLoop=1;jettySize=auto;html=1;entryX=0;entryY=0.5;entryDx=0;entryDy=0;" parent="ho9R_ZkuVcgCbn3arzky-1" source="ho9R_ZkuVcgCbn3arzky-9" target="ho9R_ZkuVcgCbn3arzky-4" edge="1"><mxGeometry relative="1" as="geometry"/></mxCell><mxCell id="ho9R_ZkuVcgCbn3arzky-9" value="BrainOS Event with Feature" style="verticalLabelPosition=bottom;html=1;verticalAlign=top;align=center;strokeColor=none;fillColor=#00BEF2;shape=mxgraph.azure.queue_generic;pointerEvents=1;" parent="ho9R_ZkuVcgCbn3arzky-1" vertex="1"><mxGeometry x="140.00000000000006" y="469.5" width="50" height="15" as="geometry"/></mxCell><mxCell id="ho9R_ZkuVcgCbn3arzky-10" value="BrainOS Event with Feature" style="verticalLabelPosition=bottom;html=1;verticalAlign=top;align=center;strokeColor=none;fillColor=#00BEF2;shape=mxgraph.azure.queue_generic;pointerEvents=1;" parent="ho9R_ZkuVcgCbn3arzky-1" vertex="1"><mxGeometry x="870" y="469.5" width="50" height="15" as="geometry"/></mxCell><mxCell id="ho9R_ZkuVcgCbn3arzky-11" value="BrainQuantity to Primitive Translation" style="ellipse;whiteSpace=wrap;html=1;fillColor=#f8cecc;strokeColor=#b85450;" parent="ho9R_ZkuVcgCbn3arzky-1" vertex="1"><mxGeometry x="310" y="437" width="120" height="80" as="geometry"/></mxCell><mxCell id="ho9R_ZkuVcgCbn3arzky-12" value="Primitive Translation to BrainQuantity" style="ellipse;whiteSpace=wrap;html=1;fillColor=#f8cecc;strokeColor=#b85450;" parent="ho9R_ZkuVcgCbn3arzky-1" vertex="1"><mxGeometry x="620" y="437" width="120" height="80" as="geometry"/></mxCell><mxCell id="ho9R_ZkuVcgCbn3arzky-13" value="" style="shape=flexArrow;endArrow=classic;startArrow=classic;html=1;rounded=0;" parent="ho9R_ZkuVcgCbn3arzky-1" edge="1"><mxGeometry width="100" height="100" relative="1" as="geometry"><mxPoint x="530" y="410" as="sourcePoint"/><mxPoint x="530" y="310" as="targetPoint"/></mxGeometry></mxCell><mxCell id="ho9R_ZkuVcgCbn3arzky-14" value="GRPC" style="edgeLabel;html=1;align=center;verticalAlign=middle;resizable=0;points=[];" parent="ho9R_ZkuVcgCbn3arzky-13" vertex="1" connectable="0"><mxGeometry x="0.14" relative="1" as="geometry"><mxPoint as="offset"/></mxGeometry></mxCell><mxCell id="0LklUlGFLavBs6ldNmXW-1" style="edgeStyle=orthogonalEdgeStyle;rounded=0;orthogonalLoop=1;jettySize=auto;html=1;entryX=1;entryY=0.5;entryDx=0;entryDy=0;entryPerimeter=0;" parent="ho9R_ZkuVcgCbn3arzky-1" source="0LklUlGFLavBs6ldNmXW-0" target="ho9R_ZkuVcgCbn3arzky-7" edge="1"><mxGeometry relative="1" as="geometry"/></mxCell><mxCell id="0LklUlGFLavBs6ldNmXW-0" value="Brain UI Workbench" style="rounded=1;whiteSpace=wrap;html=1;fillColor=#f5f5f5;fontColor=#333333;strokeColor=#666666;" parent="ho9R_ZkuVcgCbn3arzky-1" vertex="1"><mxGeometry x="841" y="155" width="120" height="60" as="geometry"/></mxCell><mxCell id="NW0ykPRig-0z3Lv1Sjlp-0" style="edgeStyle=orthogonalEdgeStyle;rounded=0;orthogonalLoop=1;jettySize=auto;html=1;" parent="ho9R_ZkuVcgCbn3arzky-1" source="NW0ykPRig-0z3Lv1Sjlp-1" target="NW0ykPRig-0z3Lv1Sjlp-2" edge="1"><mxGeometry relative="1" as="geometry"/></mxCell><mxCell id="NW0ykPRig-0z3Lv1Sjlp-1" value="rule_function_topic" style="verticalLabelPosition=bottom;html=1;verticalAlign=top;align=center;strokeColor=none;fillColor=#00BEF2;shape=mxgraph.azure.queue_generic;pointerEvents=1;" parent="ho9R_ZkuVcgCbn3arzky-1" vertex="1"><mxGeometry x="320" y="718" width="50" height="15" as="geometry"/></mxCell><mxCell id="NW0ykPRig-0z3Lv1Sjlp-2" value="Rule Engine Bridge" style="sketch=0;outlineConnect=0;fontColor=#232F3E;gradientColor=none;fillColor=#B0084D;strokeColor=none;dashed=0;verticalLabelPosition=bottom;verticalAlign=top;align=center;html=1;fontSize=12;fontStyle=0;aspect=fixed;pointerEvents=1;shape=mxgraph.aws4.rule_2;" parent="ho9R_ZkuVcgCbn3arzky-1" vertex="1"><mxGeometry x="436.92999999999995" y="710" width="31.82" height="31" as="geometry"/></mxCell><mxCell id="NW0ykPRig-0z3Lv1Sjlp-4" style="edgeStyle=orthogonalEdgeStyle;rounded=0;orthogonalLoop=1;jettySize=auto;html=1;entryX=0;entryY=0.5;entryDx=0;entryDy=0;entryPerimeter=0;" parent="ho9R_ZkuVcgCbn3arzky-1" source="NW0ykPRig-0z3Lv1Sjlp-3" target="NW0ykPRig-0z3Lv1Sjlp-1" edge="1"><mxGeometry relative="1" as="geometry"/></mxCell><mxCell id="NW0ykPRig-0z3Lv1Sjlp-3" value="Enrich" style="rounded=1;whiteSpace=wrap;html=1;" parent="ho9R_ZkuVcgCbn3arzky-1" vertex="1"><mxGeometry x="130" y="695.5" width="120" height="60" as="geometry"/></mxCell></root></mxGraphModel></diagram><diagram id="sQnAlBmVlsoJhiWh8Pho" name="content-repository"><mxGraphModel dx="1219" dy="686" grid="1" gridSize="10" guides="1" tooltips="1" connect="1" arrows="1" fold="1" page="1" pageScale="1" pageWidth="1169" pageHeight="827" math="0" shadow="0"><root><mxCell id="HCiWJTmbooWi0Apc5aOm-0"/><mxCell id="HCiWJTmbooWi0Apc5aOm-1" parent="HCiWJTmbooWi0Apc5aOm-0"/><mxCell id="HCiWJTmbooWi0Apc5aOm-4" style="edgeStyle=orthogonalEdgeStyle;rounded=0;orthogonalLoop=1;jettySize=auto;html=1;entryX=0;entryY=0.5;entryDx=0;entryDy=0;entryPerimeter=0;" parent="HCiWJTmbooWi0Apc5aOm-1" source="HCiWJTmbooWi0Apc5aOm-2" target="HCiWJTmbooWi0Apc5aOm-3" edge="1"><mxGeometry relative="1" as="geometry"/></mxCell><mxCell id="HCiWJTmbooWi0Apc5aOm-2" value="Content Repository" style="sketch=0;outlineConnect=0;fontColor=#232F3E;gradientColor=none;fillColor=#6CAE3E;strokeColor=none;dashed=0;verticalLabelPosition=bottom;verticalAlign=top;align=center;html=1;fontSize=12;fontStyle=0;aspect=fixed;pointerEvents=1;shape=mxgraph.aws4.bucket_with_objects;" parent="HCiWJTmbooWi0Apc5aOm-1" vertex="1"><mxGeometry x="40" y="198.5" width="75" height="78" as="geometry"/></mxCell><mxCell id="HCiWJTmbooWi0Apc5aOm-3" value="Content Updates" style="verticalLabelPosition=bottom;html=1;verticalAlign=top;align=center;strokeColor=none;fillColor=#00BEF2;shape=mxgraph.azure.queue_generic;pointerEvents=1;" parent="HCiWJTmbooWi0Apc5aOm-1" vertex="1"><mxGeometry x="190" y="230" width="50" height="15" as="geometry"/></mxCell></root></mxGraphModel></diagram></mxfile>